<svg width="678" height="711" viewBox="0 0 678 711" fill="none" xmlns="http://www.w3.org/2000/svg">
<g opacity="0.15" filter="url(#filter0_f_1182_2807)">
<path d="M493.685 345.902C493.685 447.884 405.556 530.556 296.843 530.556C188.129 530.556 100 447.884 100 345.902C100 243.92 188.129 161.247 296.843 161.247C405.556 161.247 493.685 243.92 493.685 345.902Z" fill="url(#paint0_radial_1182_2807)"/>
<path d="M572.422 257.231C572.422 344.067 497.41 414.462 404.877 414.462C312.345 414.462 237.332 344.067 237.332 257.231C237.332 170.395 312.345 100 404.877 100C497.41 100 572.422 170.395 572.422 257.231Z" fill="url(#paint1_radial_1182_2807)"/>
<path d="M577 453.769C577 540.605 501.987 611 409.455 611C316.922 611 241.91 540.605 241.91 453.769C241.91 366.933 316.922 296.538 409.455 296.538C501.987 296.538 577 366.933 577 453.769Z" fill="url(#paint2_radial_1182_2807)"/>
</g>
<path d="M502.875 197.027C447.927 145.718 373.547 197.027 301.284 305.002C229.02 412.977 194.658 367.536 133.228 415.125C71.7981 462.715 55.3677 657.66 271.799 638.707C488.23 619.755 646.517 330.978 502.875 197.027Z" fill="url(#paint3_linear_1182_2807)" fill-opacity="0.15"/>
<path d="M453.014 468.516C431.505 453.493 426.632 425.607 427.481 400.533C427.62 396.357 427.161 391.929 429.152 388.268C431.143 384.606 435.793 382.086 439.538 383.841C442.642 385.302 443.993 388.922 445.733 391.915C448.055 395.902 451.458 399.151 455.548 401.285C458.207 402.677 461.507 403.513 464.138 402.065C467.758 400.074 468.176 395.104 468.148 390.927C468.148 383.158 468.102 375.399 468.009 367.649C467.759 363.487 468.182 359.313 469.262 355.286C470.557 351.332 473.438 347.671 477.378 346.557C481.318 345.443 486.233 347.74 487.124 351.805C487.277 353.527 487.319 355.257 487.249 356.985C487.361 358.725 488.168 360.632 489.797 361.161C491.426 361.69 493.124 360.479 494.377 359.254C498.666 355.077 501.589 349.634 504.304 344.26C507.019 338.886 509.678 333.359 513.576 328.778C517.474 324.198 522.862 320.564 528.891 320.216C534.919 319.868 541.198 323.571 542.702 329.419C544.205 335.266 540.794 341.239 537.133 345.986C531.607 353.033 525.094 359.246 517.795 364.433C516.37 365.211 515.233 366.426 514.551 367.9C513.646 370.684 516.277 373.469 519.02 374.346C522.124 375.376 525.494 375.056 528.765 375.445C532.037 375.835 535.518 377.255 536.757 380.318C538.455 384.578 534.891 389.034 531.397 391.957C524.38 397.805 516.412 402.405 507.84 405.559C504.777 406.673 501.561 407.662 499.083 409.806C496.605 411.95 495.129 415.695 496.619 418.632C498.109 421.57 501.937 422.503 505.153 421.904C508.369 421.305 511.223 419.579 514.286 418.423C520.008 416.265 527.387 416.655 530.993 421.598C532.11 423.3 532.817 425.239 533.059 427.26C533.3 429.282 533.07 431.333 532.385 433.251C530.992 437.067 528.847 440.566 526.078 443.539C516.96 454.434 505.112 462.712 491.746 467.527C478.478 472.121 466.185 473.374 453.001 468.543" fill="#8758EA"/>
<path d="M536.577 323.654C536.577 323.654 536.451 323.794 536.173 324.044L534.934 325.144C533.848 326.119 532.247 327.539 530.228 329.418C524.504 334.732 519.19 340.471 514.329 346.584C511.224 350.441 508.008 354.812 504.583 359.56C501.158 364.307 497.622 369.431 494.114 374.874C490.373 380.615 486.948 386.554 483.853 392.667C482.238 395.855 480.818 399.182 479.356 402.579L475.04 412.951C469.351 426.016 464.397 439.388 460.199 453.006C456.818 464.147 454.488 475.581 453.238 487.157C452.428 494.969 452.298 502.837 452.848 510.672C453.071 513.456 453.28 515.586 453.475 517.034C453.558 517.73 453.614 518.287 453.67 518.691V519.262C453.61 519.081 453.568 518.894 453.544 518.705C453.475 518.301 453.391 517.758 453.28 517.062C453.029 515.67 452.765 513.47 452.514 510.686C451.842 502.836 451.889 494.942 452.653 487.101C453.825 475.476 456.105 463.989 459.461 452.797C463.623 439.141 468.565 425.735 474.261 412.645L478.688 402.315C480.15 398.932 481.584 395.577 483.213 392.374C486.329 386.243 489.782 380.29 493.557 374.54C497.121 368.971 500.713 363.931 504.096 359.226C507.479 354.52 510.751 350.12 513.842 346.278C518.752 340.181 524.138 334.482 529.95 329.237C532.01 327.385 533.653 325.993 534.767 325.06L536.061 324.016C536.22 323.878 536.393 323.757 536.577 323.654Z" fill="#263238"/>
<path d="M483.394 392.347C483.198 391.773 483.063 391.181 482.991 390.579C482.768 389.423 482.517 387.794 482.225 385.678C481.626 381.501 481.014 375.779 480.359 369.445C479.705 363.11 478.967 357.374 478.354 353.239C478.034 351.179 477.756 349.522 477.561 348.367C477.409 347.775 477.329 347.167 477.324 346.557C477.564 347.114 477.737 347.699 477.839 348.297C478.146 349.439 478.494 351.081 478.884 353.156C479.677 357.332 480.457 363.013 481.111 369.361C481.765 375.71 482.322 381.279 482.754 385.609C482.963 387.558 483.144 389.214 483.283 390.537C483.391 391.134 483.428 391.741 483.394 392.347Z" fill="#263238"/>
<path d="M536.964 382.351C536.286 382.499 535.596 382.583 534.903 382.602C533.511 382.727 531.534 382.894 529.084 383.173C524.183 383.702 517.445 384.676 510.052 386.068C502.659 387.461 496.018 389.034 491.243 390.245C488.862 390.858 486.941 391.415 485.674 391.79C484.998 392.031 484.298 392.199 483.586 392.292C484.229 391.968 484.9 391.703 485.591 391.498C486.899 391.039 488.793 390.398 491.16 389.716C495.907 388.324 502.548 386.667 509.969 385.247C516.254 384.045 522.597 383.162 528.972 382.602C531.437 382.393 533.428 382.309 534.82 382.281C535.535 382.233 536.253 382.256 536.964 382.351Z" fill="#263238"/>
<path d="M460.143 451.823C459.994 451.621 459.873 451.402 459.781 451.169L458.862 449.233C458.068 447.549 456.996 445.057 455.715 442.008C453.126 435.882 449.826 427.306 446.318 417.783C442.809 408.26 439.579 399.684 437.129 393.489C435.932 390.482 434.943 388.017 434.206 386.18L433.426 384.189C433.318 383.959 433.243 383.715 433.203 383.465C433.352 383.666 433.473 383.886 433.565 384.119L434.484 386.054C435.264 387.739 436.35 390.231 437.63 393.28C440.22 399.406 443.519 407.982 447.028 417.505C450.536 427.028 453.766 435.604 456.217 441.799C457.414 444.806 458.402 447.27 459.126 449.108C459.447 449.902 459.711 450.5 459.92 451.099C460.028 451.329 460.103 451.572 460.143 451.823Z" fill="#263238"/>
<path d="M531.258 428.893C531.035 429.021 530.796 429.119 530.548 429.185L528.487 429.881L520.872 432.345C514.44 434.434 505.557 437.413 495.812 440.699C486.066 443.984 477.142 446.908 470.668 448.857C467.438 449.846 464.807 450.597 462.983 451.099L460.881 451.642C460.636 451.719 460.384 451.771 460.129 451.795C460.352 451.667 460.591 451.568 460.839 451.502L462.899 450.806L470.515 448.342C476.947 446.254 485.829 443.274 495.575 439.989C505.32 436.703 514.231 433.779 520.705 431.83C523.948 430.842 526.566 430.09 528.404 429.589L530.506 429.046C530.75 428.968 531.002 428.917 531.258 428.893Z" fill="#263238"/>
<path d="M502.241 91.1817L495.072 93.7434L491.995 84.3738C486.342 67.0963 468.327 57.9215 451.773 63.7549C435.22 69.5884 426.407 88.5365 432.059 105.814L435.136 115.184L427.938 117.759C425.194 118.824 422.965 120.905 421.715 123.571C420.465 126.236 420.291 129.281 421.228 132.071L441.179 193.037C441.593 194.418 442.28 195.703 443.2 196.813C444.121 197.924 445.255 198.838 446.535 199.502C447.816 200.165 449.217 200.565 450.655 200.676C452.093 200.788 453.538 200.609 454.906 200.151L529.209 173.574C531.99 172.511 534.25 170.411 535.515 167.716C536.779 165.021 536.949 161.94 535.989 159.122L516.024 98.1568C515.6 96.7791 514.902 95.5011 513.972 94.3992C513.042 93.2972 511.9 92.3937 510.614 91.7427C509.328 91.0918 507.923 90.7066 506.485 90.6102C505.046 90.5138 503.603 90.7082 502.241 91.1817ZM445.606 100.927C444.082 96.4349 444.355 91.527 446.369 87.2318C448.383 82.9366 451.981 79.5875 456.409 77.886C458.596 77.1379 460.911 76.8379 463.216 77.0039C465.521 77.1699 467.769 77.7985 469.826 78.8523C471.883 79.9061 473.707 81.3634 475.188 83.1372C476.669 84.9111 477.778 86.9652 478.448 89.1769L481.511 98.5466L448.669 110.297L445.606 100.927ZM487.372 155.029L492.468 170.594C492.562 170.906 492.531 171.242 492.384 171.533C492.236 171.823 491.982 172.045 491.674 172.153L484.532 174.701C484.248 174.78 483.944 174.746 483.685 174.606C483.425 174.465 483.23 174.23 483.14 173.949L478.003 158.454C475.17 158.3 472.452 157.284 470.213 155.542C467.974 153.8 466.32 151.416 465.473 148.708C464.262 145.129 464.483 141.22 466.089 137.799C467.696 134.379 470.563 131.713 474.091 130.359C475.833 129.764 477.676 129.525 479.512 129.658C481.348 129.791 483.139 130.291 484.777 131.131C486.415 131.97 487.868 133.131 489.048 134.543C490.228 135.956 491.112 137.591 491.647 139.353C492.542 142.103 492.616 145.055 491.86 147.847C491.103 150.639 489.548 153.149 487.386 155.071L487.372 155.029Z" fill="#7239A2"/>
<path d="M494.752 93.5767C494.752 93.7716 481.456 98.7697 464.917 104.715C448.377 110.659 434.886 115.435 434.817 115.295C434.747 115.156 448.112 110.116 464.666 104.158C481.219 98.1989 494.682 93.3957 494.752 93.5767Z" fill="#263238"/>
<path d="M510.538 96.1382C510.6 96.259 510.651 96.3847 510.691 96.5141C510.803 96.7925 510.928 97.1545 511.095 97.6C511.457 98.6163 511.958 100.022 512.585 101.777L517.931 117.342C520.158 123.941 522.818 131.765 525.769 140.453C527.161 144.81 528.804 149.349 530.336 154.124C531.155 156.585 531.509 159.177 531.38 161.768C531.262 163.115 530.878 164.425 530.252 165.624C529.583 166.819 528.69 167.873 527.621 168.729C525.47 170.299 523.082 171.516 520.548 172.335L513.378 174.91L499.804 179.769L476.819 187.955L461.295 193.413L457.119 194.805L456.005 195.167C455.886 195.22 455.759 195.253 455.629 195.264C455.629 195.264 455.74 195.265 455.977 195.097L457.063 194.666L461.24 193.093L476.679 187.412L499.623 179.059L513.17 174.158L520.339 171.569C522.802 170.784 525.12 169.603 527.203 168.074C528.198 167.28 529.03 166.302 529.653 165.192C530.243 164.084 530.598 162.866 530.698 161.614C530.826 159.118 530.486 156.621 529.695 154.25C528.192 149.516 526.604 144.936 525.17 140.578C522.275 131.877 519.602 124.024 517.485 117.425C515.369 110.826 513.587 105.522 512.362 101.791C511.777 99.9668 511.332 98.5467 510.97 97.5165L510.636 96.4027C510.594 96.3183 510.561 96.2296 510.538 96.1382Z" fill="#263238"/>
<path d="M471.335 76.9395C471.335 76.9395 470.597 76.5775 469.233 76.0206C467.288 75.2734 465.231 74.8592 463.149 74.7955C460.062 74.6896 456.99 75.2697 454.155 76.494C450.707 78.0184 447.759 80.4842 445.648 83.6082C443.524 86.7234 442.384 90.4047 442.377 94.1752C442.406 97.2656 442.874 100.336 443.769 103.294C444.493 105.828 445.245 107.847 445.746 109.253C446.041 109.967 446.283 110.702 446.47 111.453C446.074 110.785 445.743 110.081 445.481 109.35C444.91 107.958 444.089 105.981 443.282 103.434C442.29 100.444 441.751 97.3238 441.681 94.1752C441.643 90.2623 442.81 86.4324 445.022 83.2045C447.206 79.9663 450.274 77.4243 453.863 75.8814C456.786 74.6504 459.954 74.1074 463.121 74.2943C465.248 74.4027 467.338 74.8981 469.288 75.7561C469.81 75.9966 470.312 76.2758 470.792 76.5914C470.99 76.6784 471.173 76.7959 471.335 76.9395Z" fill="#263238"/>
<path d="M471.976 131.417C472.198 131.282 472.431 131.166 472.672 131.069C473.369 130.754 474.091 130.498 474.83 130.303C476.004 129.957 477.214 129.751 478.436 129.69C480.098 129.601 481.761 129.852 483.323 130.428C486.887 131.681 490.158 135.315 491.773 140.174C492.548 142.781 492.548 145.558 491.773 148.165C490.915 150.995 489.375 153.572 487.29 155.669L487.374 155.293C489.226 160.375 491.244 165.888 493.333 171.638L493.458 171.986L493.11 172.112L489.922 173.17L482.961 175.495L482.613 175.606L482.501 175.258C480.594 169.494 478.506 164.12 476.932 158.844L477.239 159.08C474.517 158.854 471.922 157.833 469.776 156.143C467.835 154.648 466.244 152.747 465.112 150.574C464.092 148.646 463.583 146.489 463.637 144.309C463.701 142.08 464.257 139.894 465.266 137.906C466.274 135.918 467.71 134.177 469.47 132.809C470.194 132.221 471.007 131.751 471.879 131.417C471.092 131.883 470.33 132.39 469.595 132.934C467.662 134.57 466.181 136.674 465.293 139.046C464.532 140.835 464.175 142.77 464.25 144.712C464.325 146.655 464.828 148.557 465.725 150.281C466.837 152.372 468.391 154.196 470.277 155.628C472.324 157.234 474.798 158.202 477.392 158.412H477.628L477.698 158.621C479.229 163.8 481.332 169.216 483.267 175.007L482.807 174.785L489.769 172.46L492.943 171.388L492.72 171.861C490.646 166.111 488.641 160.584 486.803 155.502V155.293L486.97 155.126C488.994 153.116 490.503 150.647 491.37 147.929C492.108 145.434 492.108 142.78 491.37 140.285C489.852 135.607 486.72 132.057 483.323 130.804C481.819 130.224 480.214 129.954 478.603 130.011C477.4 130.038 476.205 130.202 475.039 130.498C472.964 131.013 471.99 131.486 471.976 131.417Z" fill="#263238"/>
<path d="M428.942 533.407L289.872 532.767C281.841 532.723 274.156 529.493 268.504 523.787C262.853 518.08 259.697 510.364 259.731 502.333L261.206 153.706C261.223 149.727 262.023 145.791 263.562 142.121C265.101 138.452 267.347 135.122 270.174 132.321C273 129.521 276.351 127.305 280.034 125.8C283.718 124.295 287.662 123.531 291.64 123.551L430.696 124.191C438.727 124.232 446.414 127.458 452.068 133.162C457.722 138.865 460.881 146.58 460.851 154.611L459.376 503.224C459.359 507.204 458.559 511.142 457.021 514.813C455.482 518.484 453.236 521.816 450.41 524.619C447.584 527.422 444.233 529.64 440.55 531.148C436.866 532.656 432.922 533.424 428.942 533.407Z" fill="#212121"/>
<path d="M430.485 136.178H403.532C402.653 136.195 401.786 136.384 400.98 136.736C400.173 137.087 399.444 137.594 398.834 138.228C398.224 138.861 397.744 139.609 397.423 140.428C397.102 141.247 396.945 142.121 396.962 143V147.887C396.978 148.766 396.82 149.639 396.499 150.457C396.177 151.275 395.699 152.022 395.088 152.654C394.478 153.287 393.748 153.792 392.942 154.143C392.136 154.493 391.269 154.68 390.39 154.695L337.847 154.458C336.069 154.411 334.384 153.66 333.16 152.37C331.936 151.081 331.272 149.358 331.317 147.581V142.694C331.362 140.919 330.702 139.198 329.481 137.909C328.259 136.62 326.578 135.867 324.803 135.816H315.321L291.723 135.705C286.11 135.672 280.713 137.864 276.713 141.801C272.713 145.739 270.436 151.101 270.381 156.714L268.989 497.001C268.976 499.785 269.511 502.545 270.565 505.123C271.619 507.7 273.17 510.045 275.13 512.023C277.09 514.001 279.42 515.573 281.988 516.651C284.555 517.728 287.309 518.289 290.094 518.302L428.87 518.942C431.657 518.955 434.418 518.419 436.998 517.365C439.577 516.31 441.924 514.758 443.903 512.797C445.882 510.836 447.455 508.504 448.533 505.935C449.611 503.365 450.174 500.609 450.186 497.822L451.579 157.535C451.612 151.906 449.409 146.495 445.454 142.49C441.499 138.485 436.114 136.215 430.485 136.178Z" fill="white"/>
<path d="M411.816 473.542L308.625 473.096C307.553 473.096 306.689 471.927 306.703 470.507L306.815 443.511C306.815 442.119 307.692 440.922 308.764 440.922L411.955 441.395C412.549 441.498 413.081 441.826 413.439 442.311C413.797 442.796 413.954 443.401 413.877 443.999L413.779 470.966C413.779 472.4 412.888 473.556 411.816 473.542Z" fill="#9F36F0"/>
<path d="M329.707 456.855C329.707 456.023 329.888 455.283 330.248 454.635C330.608 453.979 331.108 453.471 331.748 453.111C332.396 452.743 333.128 452.559 333.944 452.559C334.944 452.559 335.8 452.823 336.512 453.351C337.224 453.879 337.7 454.599 337.94 455.511H335.684C335.516 455.159 335.276 454.891 334.964 454.707C334.66 454.523 334.312 454.431 333.92 454.431C333.288 454.431 332.776 454.651 332.384 455.091C331.992 455.531 331.796 456.119 331.796 456.855C331.796 457.591 331.992 458.179 332.384 458.619C332.776 459.059 333.288 459.279 333.92 459.279C334.312 459.279 334.66 459.187 334.964 459.003C335.276 458.819 335.516 458.551 335.684 458.199H337.94C337.7 459.111 337.224 459.831 336.512 460.359C335.8 460.879 334.944 461.139 333.944 461.139C333.128 461.139 332.396 460.959 331.748 460.599C331.108 460.231 330.608 459.723 330.248 459.075C329.888 458.427 329.707 457.687 329.707 456.855ZM338.188 457.719C338.188 457.031 338.316 456.427 338.572 455.907C338.836 455.387 339.192 454.987 339.64 454.707C340.088 454.427 340.588 454.287 341.14 454.287C341.612 454.287 342.024 454.383 342.376 454.575C342.736 454.767 343.012 455.019 343.204 455.331V454.383H345.256V461.079H343.204V460.131C343.004 460.443 342.724 460.695 342.364 460.887C342.012 461.079 341.6 461.175 341.128 461.175C340.584 461.175 340.088 461.035 339.64 460.755C339.192 460.467 338.836 460.063 338.572 459.543C338.316 459.015 338.188 458.407 338.188 457.719ZM343.204 457.731C343.204 457.219 343.06 456.815 342.772 456.519C342.492 456.223 342.148 456.075 341.74 456.075C341.332 456.075 340.984 456.223 340.696 456.519C340.416 456.807 340.276 457.207 340.276 457.719C340.276 458.231 340.416 458.639 340.696 458.943C340.984 459.239 341.332 459.387 341.74 459.387C342.148 459.387 342.492 459.239 342.772 458.943C343.06 458.647 343.204 458.243 343.204 457.731ZM345.733 457.719C345.733 457.031 345.861 456.427 346.117 455.907C346.381 455.387 346.737 454.987 347.185 454.707C347.633 454.427 348.133 454.287 348.685 454.287C349.125 454.287 349.525 454.379 349.885 454.563C350.253 454.747 350.541 454.995 350.749 455.307V452.199H352.801V461.079H350.749V460.119C350.557 460.439 350.281 460.695 349.921 460.887C349.569 461.079 349.157 461.175 348.685 461.175C348.133 461.175 347.633 461.035 347.185 460.755C346.737 460.467 346.381 460.063 346.117 459.543C345.861 459.015 345.733 458.407 345.733 457.719ZM350.749 457.731C350.749 457.219 350.605 456.815 350.317 456.519C350.037 456.223 349.693 456.075 349.285 456.075C348.877 456.075 348.529 456.223 348.241 456.519C347.961 456.807 347.821 457.207 347.821 457.719C347.821 458.231 347.961 458.639 348.241 458.943C348.529 459.239 348.877 459.387 349.285 459.387C349.693 459.387 350.037 459.239 350.317 458.943C350.605 458.647 350.749 458.243 350.749 457.731ZM353.277 457.719C353.277 457.031 353.405 456.427 353.661 455.907C353.925 455.387 354.281 454.987 354.729 454.707C355.177 454.427 355.677 454.287 356.229 454.287C356.701 454.287 357.113 454.383 357.465 454.575C357.825 454.767 358.101 455.019 358.293 455.331V454.383H360.345V461.079H358.293V460.131C358.093 460.443 357.813 460.695 357.453 460.887C357.101 461.079 356.689 461.175 356.217 461.175C355.673 461.175 355.177 461.035 354.729 460.755C354.281 460.467 353.925 460.063 353.661 459.543C353.405 459.015 353.277 458.407 353.277 457.719ZM358.293 457.731C358.293 457.219 358.149 456.815 357.861 456.519C357.581 456.223 357.237 456.075 356.829 456.075C356.421 456.075 356.073 456.223 355.785 456.519C355.505 456.807 355.365 457.207 355.365 457.719C355.365 458.231 355.505 458.639 355.785 458.943C356.073 459.239 356.421 459.387 356.829 459.387C357.237 459.387 357.581 459.239 357.861 458.943C358.149 458.647 358.293 458.243 358.293 457.731ZM363.954 461.175C363.37 461.175 362.85 461.075 362.394 460.875C361.938 460.675 361.578 460.403 361.314 460.059C361.05 459.707 360.902 459.315 360.87 458.883H362.898C362.922 459.115 363.03 459.303 363.222 459.447C363.414 459.591 363.65 459.663 363.93 459.663C364.186 459.663 364.382 459.615 364.518 459.519C364.662 459.415 364.734 459.283 364.734 459.123C364.734 458.931 364.634 458.791 364.434 458.703C364.234 458.607 363.91 458.503 363.462 458.391C362.982 458.279 362.582 458.163 362.262 458.043C361.942 457.915 361.666 457.719 361.434 457.455C361.202 457.183 361.086 456.819 361.086 456.363C361.086 455.979 361.19 455.631 361.398 455.319C361.614 454.999 361.926 454.747 362.334 454.563C362.75 454.379 363.242 454.287 363.81 454.287C364.65 454.287 365.31 454.495 365.79 454.911C366.278 455.327 366.558 455.879 366.63 456.567H364.734C364.702 456.335 364.598 456.151 364.422 456.015C364.254 455.879 364.03 455.811 363.75 455.811C363.51 455.811 363.326 455.859 363.198 455.955C363.07 456.043 363.006 456.167 363.006 456.327C363.006 456.519 363.106 456.663 363.306 456.759C363.514 456.855 363.834 456.951 364.266 457.047C364.762 457.175 365.166 457.303 365.478 457.431C365.79 457.551 366.062 457.751 366.294 458.031C366.534 458.303 366.658 458.671 366.666 459.135C366.666 459.527 366.554 459.879 366.33 460.191C366.114 460.495 365.798 460.735 365.382 460.911C364.974 461.087 364.498 461.175 363.954 461.175ZM371.053 459.339V461.079H370.009C369.265 461.079 368.685 460.899 368.269 460.539C367.853 460.171 367.645 459.575 367.645 458.751V456.087H366.829V454.383H367.645V452.751H369.697V454.383H371.041V456.087H369.697V458.775C369.697 458.975 369.745 459.119 369.841 459.207C369.937 459.295 370.097 459.339 370.321 459.339H371.053ZM373.648 455.499C373.888 455.131 374.188 454.843 374.548 454.635C374.908 454.419 375.308 454.311 375.748 454.311V456.483H375.184C374.672 456.483 374.288 456.595 374.032 456.819C373.776 457.035 373.648 457.419 373.648 457.971V461.079H371.596V454.383H373.648V455.499ZM375.721 457.719C375.721 457.031 375.849 456.427 376.105 455.907C376.369 455.387 376.725 454.987 377.173 454.707C377.621 454.427 378.121 454.287 378.673 454.287C379.145 454.287 379.557 454.383 379.909 454.575C380.269 454.767 380.545 455.019 380.737 455.331V454.383H382.789V461.079H380.737V460.131C380.537 460.443 380.257 460.695 379.897 460.887C379.545 461.079 379.133 461.175 378.661 461.175C378.117 461.175 377.621 461.035 377.173 460.755C376.725 460.467 376.369 460.063 376.105 459.543C375.849 459.015 375.721 458.407 375.721 457.719ZM380.737 457.731C380.737 457.219 380.593 456.815 380.305 456.519C380.025 456.223 379.681 456.075 379.273 456.075C378.865 456.075 378.517 456.223 378.229 456.519C377.949 456.807 377.809 457.207 377.809 457.719C377.809 458.231 377.949 458.639 378.229 458.943C378.517 459.239 378.865 459.387 379.273 459.387C379.681 459.387 380.025 459.239 380.305 458.943C380.593 458.647 380.737 458.243 380.737 457.731ZM385.725 455.499C385.965 455.131 386.265 454.843 386.625 454.635C386.985 454.419 387.385 454.311 387.825 454.311V456.483H387.261C386.749 456.483 386.365 456.595 386.109 456.819C385.853 457.035 385.725 457.419 385.725 457.971V461.079H383.673V454.383H385.725V455.499Z" fill="white"/>
<path d="M329.208 236.21L293.4 236.047L293.371 242.619L329.178 242.781L329.208 236.21Z" fill="#9F36F0"/>
<path opacity="0.1" d="M329.208 236.21L293.4 236.047L293.371 242.619L329.178 242.781L329.208 236.21Z" fill="black"/>
<path d="M434.175 276.556C434.456 276.528 434.732 276.462 434.996 276.361C435.382 276.211 435.717 275.954 435.963 275.622C436.209 275.289 436.357 274.894 436.389 274.482C436.389 272.268 436.389 269.038 436.389 264.889C436.389 262.815 436.389 260.49 436.389 257.928C436.389 257.302 436.389 256.647 436.389 255.993C436.479 255.358 436.341 254.711 435.999 254.169C435.807 253.909 435.558 253.697 435.27 253.55C434.983 253.402 434.665 253.324 434.342 253.32H432.17H412.053L295.607 252.888C295.309 252.883 295.014 252.95 294.748 253.083C294.481 253.217 294.25 253.413 294.076 253.654C293.739 254.199 293.611 254.846 293.714 255.478C293.714 256.87 293.714 258.262 293.714 259.654C293.714 262.439 293.714 265.223 293.714 268.008C293.714 269.4 293.714 270.792 293.714 272.184C293.656 272.833 293.656 273.485 293.714 274.134C293.787 274.412 293.923 274.669 294.111 274.886C294.299 275.104 294.535 275.275 294.8 275.387C295.074 275.496 295.368 275.548 295.663 275.54H302.749L333.67 275.707L386.018 276.027L421.311 276.305L430.903 276.417H433.395C433.966 276.417 434.245 276.417 434.245 276.417H433.395H430.903H421.311H386.018L333.67 276.25L302.749 276.124H295.663C295.273 276.14 294.884 276.074 294.521 275.93C294.155 275.773 293.829 275.535 293.568 275.233C293.307 274.932 293.119 274.575 293.018 274.189C292.937 273.824 292.909 273.449 292.934 273.076V272.045C292.934 270.653 292.934 269.261 292.934 267.869C292.934 265.084 292.934 262.3 292.934 259.515C292.934 258.123 292.934 256.731 292.934 255.339C292.907 254.968 292.907 254.596 292.934 254.225C292.986 253.815 293.145 253.426 293.393 253.097C293.634 252.761 293.951 252.488 294.32 252.301C294.688 252.115 295.097 252.02 295.51 252.025L411.955 252.666L432.073 252.805H434.245C434.627 252.805 435.004 252.898 435.344 253.074C435.683 253.251 435.975 253.507 436.194 253.821C436.586 254.426 436.745 255.154 436.639 255.868C436.639 256.522 436.639 257.176 436.639 257.803C436.639 260.337 436.639 262.662 436.639 264.764C436.639 268.941 436.542 272.143 436.514 274.37C436.48 274.799 436.324 275.208 436.065 275.551C435.806 275.894 435.455 276.156 435.052 276.305C434.789 276.469 434.485 276.556 434.175 276.556Z" fill="#E0E0E0"/>
<path d="M369.646 259.877H304.156V266.017H369.646V259.877Z" fill="#9F36F0"/>
<path opacity="0.2" d="M369.646 259.877H304.156V266.017H369.646V259.877Z" fill="white"/>
<path d="M328.963 296.157L293.155 295.994L293.125 302.565L328.933 302.728L328.963 296.157Z" fill="#9F36F0"/>
<path opacity="0.1" d="M328.963 296.157L293.155 295.994L293.125 302.565L328.933 302.728L328.963 296.157Z" fill="black"/>
<path d="M433.272 336.505C433.553 336.47 433.832 336.419 434.107 336.352C434.496 336.228 434.854 336.022 435.157 335.748C435.459 335.475 435.7 335.139 435.862 334.765C436.081 334.202 436.167 333.597 436.112 332.996C436.112 332.328 436.112 331.604 436.112 330.797C436.112 329.182 436.112 327.344 436.112 325.228V316.387C436.179 315.747 436.037 315.103 435.708 314.549C435.365 313.982 434.825 313.561 434.191 313.366C433.497 313.242 432.791 313.205 432.089 313.255H412.055L296.013 312.823C295.389 312.825 294.786 313.053 294.318 313.465C293.849 313.877 293.546 314.446 293.465 315.065C293.465 316.387 293.465 317.849 293.465 319.241C293.465 322.026 293.465 324.81 293.465 327.595C293.465 328.987 293.465 330.379 293.465 331.771C293.413 332.422 293.441 333.076 293.549 333.72C293.722 334.285 294.08 334.775 294.565 335.113C295.079 335.439 295.683 335.595 296.291 335.558H298.226H302.25L333.06 335.711L385.226 336.031L420.394 336.31L429.959 336.421H420.394H385.226L333.032 336.366L302.222 336.254H296.166C295.413 336.299 294.666 336.099 294.036 335.683C293.402 335.245 292.94 334.6 292.727 333.86C292.602 333.152 292.565 332.432 292.616 331.716C292.616 330.323 292.616 328.931 292.616 327.539C292.616 324.754 292.616 321.97 292.616 319.186C292.616 317.793 292.616 316.401 292.616 315.009C292.717 314.213 293.106 313.481 293.708 312.951C294.31 312.42 295.085 312.127 295.887 312.127L411.929 312.767L431.963 312.921C432.709 312.875 433.458 312.926 434.191 313.074C434.914 313.31 435.524 313.806 435.903 314.466C436.264 315.079 436.42 315.791 436.349 316.499C436.349 317.153 436.349 317.793 436.349 318.434C436.349 320.954 436.349 323.265 436.349 325.395C436.349 327.525 436.349 329.321 436.349 330.964C436.349 331.757 436.349 332.495 436.349 333.177C436.399 333.8 436.299 334.426 436.057 335.001C435.876 335.385 435.614 335.726 435.29 336C434.966 336.274 434.586 336.474 434.177 336.588C433.873 336.613 433.567 336.585 433.272 336.505Z" fill="#E0E0E0"/>
<path d="M328.692 358.707L292.885 358.545L292.855 365.116L328.663 365.279L328.692 358.707Z" fill="#7239A2"/>
<path opacity="0.1" d="M328.692 358.707L292.885 358.545L292.855 365.116L328.663 365.279L328.692 358.707Z" fill="black"/>
<path d="M432.994 399.03C433.276 398.996 433.555 398.945 433.83 398.876C434.217 398.753 434.573 398.549 434.876 398.278C435.178 398.007 435.42 397.675 435.584 397.303C435.802 396.741 435.888 396.136 435.835 395.535C435.835 394.853 435.835 394.143 435.835 393.321C435.835 391.72 435.835 389.869 435.835 387.753V378.912C435.901 378.272 435.759 377.627 435.431 377.074C435.079 376.517 434.542 376.103 433.913 375.905C433.22 375.776 432.514 375.734 431.811 375.779H411.777L295.735 375.348C295.111 375.349 294.509 375.577 294.04 375.99C293.571 376.402 293.268 376.97 293.187 377.589C293.187 378.981 293.187 380.374 293.187 381.766C293.187 384.55 293.187 387.335 293.187 390.119C293.187 391.512 293.187 392.904 293.187 394.296C293.135 394.942 293.164 395.592 293.271 396.231C293.438 396.799 293.797 397.291 294.287 397.623C294.798 397.957 295.405 398.114 296.014 398.069H302.07L332.88 398.236L385.046 398.556L420.214 398.835L429.778 398.946H420.214H385.046L332.88 398.793L302.07 398.668H296.014C295.26 398.718 294.511 398.518 293.883 398.097C293.25 397.658 292.788 397.014 292.575 396.273C292.45 395.566 292.413 394.845 292.463 394.129C292.463 392.737 292.463 391.344 292.463 389.952C292.463 387.168 292.463 384.383 292.463 381.599C292.463 380.207 292.463 378.814 292.463 377.353C292.562 376.558 292.947 375.826 293.547 375.295C294.147 374.765 294.92 374.471 295.721 374.471L411.763 375.111L431.797 375.264C432.543 375.219 433.292 375.27 434.025 375.417C434.748 375.654 435.358 376.15 435.737 376.81C436.097 377.423 436.253 378.135 436.183 378.842C436.183 379.497 436.183 380.151 436.183 380.777C436.183 383.297 436.183 385.608 436.183 387.739C436.183 389.869 436.183 391.665 436.183 393.307C436.183 394.101 436.183 394.839 436.183 395.521C436.236 396.144 436.136 396.77 435.89 397.345C435.71 397.729 435.448 398.07 435.124 398.344C434.799 398.618 434.42 398.818 434.011 398.932C433.684 399.044 433.336 399.077 432.994 399.03Z" fill="#E0E0E0"/>
<path d="M368.247 321.563L302.758 321.266L302.73 327.405L368.219 327.702L368.247 321.563Z" fill="#7239A2"/>
<path opacity="0.2" d="M368.247 321.563L302.758 321.266L302.73 327.405L368.219 327.702L368.247 321.563Z" fill="white"/>
<path d="M308.681 387.67C308.64 388.23 308.436 388.765 308.093 389.21C307.75 389.655 307.285 389.989 306.754 390.172C306.223 390.355 305.65 390.377 305.106 390.237C304.562 390.097 304.071 389.801 303.695 389.384C303.318 388.968 303.072 388.45 302.986 387.895C302.901 387.34 302.981 386.772 303.215 386.262C303.45 385.752 303.829 385.322 304.306 385.025C304.782 384.728 305.336 384.578 305.897 384.593C306.673 384.636 307.4 384.983 307.921 385.559C308.442 386.135 308.716 386.894 308.681 387.67Z" fill="#9F36F0"/>
<path d="M317.549 387.711C317.577 388.104 317.523 388.498 317.392 388.869C317.26 389.239 317.054 389.579 316.786 389.867C316.517 390.155 316.193 390.384 315.832 390.541C315.471 390.698 315.082 390.779 314.688 390.779C314.295 390.779 313.906 390.698 313.545 390.541C313.184 390.384 312.859 390.155 312.591 389.867C312.323 389.579 312.116 389.239 311.985 388.869C311.854 388.498 311.8 388.104 311.827 387.711C311.8 387.319 311.854 386.925 311.985 386.554C312.116 386.183 312.323 385.843 312.591 385.555C312.859 385.268 313.184 385.038 313.545 384.881C313.906 384.725 314.295 384.644 314.688 384.644C315.082 384.644 315.471 384.725 315.832 384.881C316.193 385.038 316.517 385.268 316.786 385.555C317.054 385.843 317.26 386.183 317.392 386.554C317.523 386.925 317.577 387.319 317.549 387.711Z" fill="#9F36F0"/>
<path d="M326.431 387.753C326.39 388.313 326.186 388.848 325.843 389.293C325.5 389.738 325.035 390.072 324.504 390.255C323.973 390.438 323.4 390.46 322.856 390.32C322.312 390.18 321.821 389.884 321.445 389.467C321.068 389.051 320.822 388.533 320.736 387.978C320.651 387.423 320.731 386.855 320.965 386.345C321.2 385.835 321.579 385.405 322.056 385.108C322.532 384.811 323.086 384.661 323.647 384.676C324.421 384.723 325.146 385.071 325.667 385.646C326.188 386.221 326.462 386.978 326.431 387.753Z" fill="#9F36F0"/>
<path d="M335.299 387.795C335.258 388.355 335.053 388.89 334.71 389.335C334.368 389.78 333.902 390.114 333.371 390.297C332.84 390.48 332.267 390.502 331.723 390.362C331.179 390.222 330.689 389.926 330.312 389.509C329.935 389.093 329.689 388.575 329.604 388.02C329.518 387.465 329.598 386.897 329.832 386.387C330.067 385.877 330.446 385.447 330.923 385.15C331.399 384.853 331.953 384.703 332.514 384.718C333.288 384.765 334.014 385.113 334.534 385.688C335.055 386.263 335.329 387.02 335.299 387.795Z" fill="#9F36F0"/>
<path d="M344.171 387.823C344.132 388.384 343.93 388.921 343.589 389.368C343.247 389.814 342.782 390.151 342.252 390.336C341.721 390.52 341.147 390.545 340.602 390.406C340.057 390.268 339.565 389.972 339.187 389.556C338.809 389.14 338.562 388.622 338.475 388.067C338.389 387.511 338.468 386.943 338.702 386.432C338.937 385.921 339.316 385.49 339.793 385.192C340.27 384.895 340.824 384.745 341.386 384.76C342.158 384.807 342.881 385.153 343.401 385.725C343.921 386.297 344.197 387.05 344.171 387.823Z" fill="#9F36F0"/>
<path d="M353.054 387.865C353.016 388.423 352.815 388.957 352.477 389.403C352.139 389.848 351.679 390.186 351.151 390.373C350.624 390.56 350.054 390.589 349.511 390.456C348.968 390.323 348.475 390.034 348.094 389.625C347.713 389.216 347.459 388.704 347.365 388.153C347.271 387.602 347.34 387.035 347.564 386.522C347.788 386.01 348.156 385.574 348.625 385.268C349.093 384.962 349.64 384.8 350.199 384.802C350.984 384.831 351.724 385.169 352.259 385.744C352.794 386.318 353.08 387.08 353.054 387.865Z" fill="#9F36F0"/>
<path d="M361.92 387.906C361.948 388.298 361.894 388.692 361.763 389.063C361.631 389.434 361.425 389.774 361.157 390.061C360.888 390.349 360.564 390.579 360.203 390.735C359.842 390.892 359.453 390.973 359.059 390.973C358.666 390.973 358.277 390.892 357.916 390.735C357.555 390.579 357.23 390.349 356.962 390.061C356.694 389.774 356.487 389.434 356.356 389.063C356.225 388.692 356.171 388.298 356.198 387.906C356.171 387.513 356.225 387.119 356.356 386.748C356.487 386.377 356.694 386.037 356.962 385.75C357.23 385.462 357.555 385.233 357.916 385.076C358.277 384.919 358.666 384.838 359.059 384.838C359.453 384.838 359.842 384.919 360.203 385.076C360.564 385.233 360.888 385.462 361.157 385.75C361.425 386.037 361.631 386.377 361.763 386.748C361.894 387.119 361.948 387.513 361.92 387.906Z" fill="#9F36F0"/>
<path d="M370.788 387.948C370.75 388.506 370.55 389.04 370.212 389.486C369.874 389.931 369.413 390.268 368.886 390.456C368.359 390.643 367.789 390.671 367.245 390.539C366.702 390.406 366.21 390.117 365.828 389.708C365.447 389.299 365.194 388.787 365.1 388.236C365.005 387.685 365.074 387.118 365.298 386.605C365.522 386.093 365.891 385.657 366.359 385.351C366.827 385.045 367.375 384.883 367.934 384.885C368.718 384.914 369.459 385.252 369.994 385.827C370.529 386.401 370.814 387.163 370.788 387.948Z" fill="#9F36F0"/>
<path d="M379.659 387.99C379.621 388.551 379.418 389.088 379.077 389.534C378.736 389.981 378.271 390.318 377.74 390.503C377.209 390.687 376.635 390.712 376.091 390.573C375.546 390.435 375.054 390.139 374.676 389.723C374.297 389.307 374.05 388.789 373.964 388.234C373.877 387.678 373.956 387.109 374.191 386.598C374.425 386.087 374.804 385.657 375.281 385.359C375.759 385.062 376.313 384.912 376.874 384.927C377.646 384.974 378.369 385.32 378.89 385.892C379.41 386.464 379.686 387.217 379.659 387.99Z" fill="#9F36F0"/>
<g opacity="0.2">
<path d="M308.681 387.67C308.64 388.23 308.436 388.765 308.093 389.21C307.75 389.655 307.285 389.989 306.754 390.172C306.223 390.355 305.65 390.377 305.106 390.237C304.562 390.097 304.071 389.801 303.695 389.384C303.318 388.968 303.072 388.45 302.986 387.895C302.901 387.34 302.981 386.772 303.215 386.262C303.45 385.752 303.829 385.322 304.306 385.025C304.782 384.728 305.336 384.578 305.897 384.593C306.673 384.636 307.4 384.983 307.921 385.559C308.442 386.135 308.716 386.894 308.681 387.67Z" fill="white"/>
<path d="M317.549 387.711C317.577 388.104 317.523 388.498 317.392 388.869C317.26 389.239 317.054 389.579 316.786 389.867C316.517 390.155 316.193 390.384 315.832 390.541C315.471 390.698 315.082 390.779 314.688 390.779C314.295 390.779 313.906 390.698 313.545 390.541C313.184 390.384 312.859 390.155 312.591 389.867C312.323 389.579 312.116 389.239 311.985 388.869C311.854 388.498 311.8 388.104 311.827 387.711C311.8 387.319 311.854 386.925 311.985 386.554C312.116 386.183 312.323 385.843 312.591 385.555C312.859 385.268 313.184 385.038 313.545 384.881C313.906 384.725 314.295 384.644 314.688 384.644C315.082 384.644 315.471 384.725 315.832 384.881C316.193 385.038 316.517 385.268 316.786 385.555C317.054 385.843 317.26 386.183 317.392 386.554C317.523 386.925 317.577 387.319 317.549 387.711Z" fill="white"/>
<path d="M326.431 387.754C326.39 388.314 326.186 388.849 325.843 389.294C325.5 389.739 325.035 390.073 324.504 390.256C323.973 390.438 323.4 390.461 322.856 390.321C322.312 390.181 321.821 389.885 321.445 389.468C321.068 389.052 320.822 388.534 320.736 387.979C320.651 387.424 320.731 386.856 320.965 386.346C321.2 385.836 321.579 385.406 322.056 385.109C322.532 384.812 323.086 384.662 323.647 384.677C324.421 384.724 325.146 385.072 325.667 385.647C326.188 386.222 326.462 386.978 326.431 387.754Z" fill="white"/>
<path d="M335.299 387.795C335.258 388.355 335.053 388.89 334.71 389.335C334.368 389.78 333.902 390.114 333.371 390.297C332.84 390.48 332.267 390.502 331.723 390.362C331.179 390.222 330.689 389.926 330.312 389.509C329.935 389.093 329.689 388.575 329.604 388.02C329.518 387.465 329.598 386.897 329.832 386.387C330.067 385.877 330.446 385.447 330.923 385.15C331.399 384.853 331.953 384.703 332.514 384.718C333.288 384.765 334.014 385.113 334.534 385.688C335.055 386.263 335.329 387.02 335.299 387.795Z" fill="white"/>
<path d="M344.171 387.823C344.132 388.384 343.93 388.921 343.589 389.368C343.247 389.814 342.782 390.151 342.252 390.336C341.721 390.52 341.147 390.545 340.602 390.406C340.057 390.268 339.565 389.972 339.187 389.556C338.809 389.14 338.562 388.622 338.475 388.067C338.389 387.511 338.468 386.943 338.702 386.432C338.937 385.921 339.316 385.49 339.793 385.192C340.27 384.895 340.824 384.745 341.386 384.76C342.158 384.807 342.881 385.153 343.401 385.725C343.921 386.297 344.197 387.05 344.171 387.823Z" fill="white"/>
<path d="M353.054 387.865C353.016 388.423 352.815 388.957 352.477 389.403C352.139 389.848 351.679 390.186 351.151 390.373C350.624 390.56 350.054 390.589 349.511 390.456C348.968 390.323 348.475 390.034 348.094 389.625C347.713 389.216 347.459 388.704 347.365 388.153C347.271 387.602 347.34 387.035 347.564 386.522C347.788 386.01 348.156 385.574 348.625 385.268C349.093 384.962 349.64 384.8 350.199 384.802C350.984 384.831 351.724 385.169 352.259 385.744C352.794 386.318 353.08 387.08 353.054 387.865Z" fill="white"/>
<path d="M361.92 387.907C361.948 388.299 361.894 388.693 361.763 389.064C361.631 389.435 361.425 389.775 361.157 390.062C360.888 390.35 360.564 390.58 360.203 390.736C359.842 390.893 359.453 390.974 359.059 390.974C358.666 390.974 358.277 390.893 357.916 390.736C357.555 390.58 357.23 390.35 356.962 390.062C356.694 389.775 356.487 389.435 356.356 389.064C356.225 388.693 356.171 388.299 356.198 387.907C356.171 387.514 356.225 387.12 356.356 386.749C356.487 386.378 356.694 386.038 356.962 385.751C357.23 385.463 357.555 385.234 357.916 385.077C358.277 384.92 358.666 384.839 359.059 384.839C359.453 384.839 359.842 384.92 360.203 385.077C360.564 385.234 360.888 385.463 361.157 385.751C361.425 386.038 361.631 386.378 361.763 386.749C361.894 387.12 361.948 387.514 361.92 387.907Z" fill="white"/>
<path d="M370.788 387.948C370.75 388.506 370.55 389.04 370.212 389.486C369.874 389.931 369.413 390.268 368.886 390.456C368.359 390.643 367.789 390.671 367.245 390.539C366.702 390.406 366.21 390.117 365.828 389.708C365.447 389.299 365.194 388.787 365.1 388.236C365.005 387.685 365.074 387.118 365.298 386.605C365.522 386.093 365.891 385.657 366.359 385.351C366.827 385.045 367.375 384.883 367.934 384.885C368.718 384.914 369.459 385.252 369.994 385.827C370.529 386.401 370.814 387.163 370.788 387.948Z" fill="white"/>
<path d="M379.659 387.99C379.621 388.551 379.418 389.088 379.077 389.534C378.736 389.981 378.271 390.318 377.74 390.503C377.209 390.687 376.635 390.712 376.091 390.573C375.546 390.435 375.054 390.139 374.676 389.723C374.297 389.307 374.05 388.789 373.964 388.234C373.877 387.678 373.956 387.109 374.191 386.598C374.425 386.087 374.804 385.657 375.281 385.359C375.759 385.062 376.313 384.912 376.874 384.927C377.646 384.974 378.369 385.32 378.89 385.892C379.41 386.464 379.686 387.217 379.659 387.99Z" fill="white"/>
</g>
<path d="M367.056 187.009C368.023 186.583 368.844 185.882 369.415 184.993C369.987 184.104 370.285 183.067 370.272 182.01C370.308 181.324 370.204 180.636 369.966 179.991C369.728 179.346 369.361 178.756 368.887 178.257C368.414 177.758 367.844 177.36 367.212 177.089C366.58 176.817 365.899 176.677 365.211 176.677C364.523 176.677 363.843 176.817 363.211 177.089C362.579 177.36 362.009 177.758 361.535 178.257C361.062 178.756 360.695 179.346 360.457 179.991C360.219 180.636 360.114 181.324 360.15 182.01C360.129 183.078 360.425 184.127 361 185.027C361.574 185.926 362.403 186.635 363.38 187.064C355.584 188.234 355.932 196.698 355.932 196.698L374.365 196.782C374.365 196.782 374.797 188.164 367.056 187.009Z" fill="#9F36F0"/>
<path opacity="0.1" d="M367.056 187.009C368.023 186.583 368.844 185.882 369.415 184.993C369.987 184.104 370.285 183.067 370.272 182.01C370.308 181.324 370.204 180.636 369.966 179.991C369.728 179.346 369.361 178.756 368.887 178.257C368.414 177.758 367.844 177.36 367.212 177.089C366.58 176.817 365.899 176.677 365.211 176.677C364.523 176.677 363.843 176.817 363.211 177.089C362.579 177.36 362.009 177.758 361.535 178.257C361.062 178.756 360.695 179.346 360.457 179.991C360.219 180.636 360.114 181.324 360.15 182.01C360.129 183.078 360.425 184.127 361 185.027C361.574 185.926 362.403 186.635 363.38 187.064C355.584 188.234 355.932 196.698 355.932 196.698L374.365 196.782C374.365 196.782 374.797 188.164 367.056 187.009Z" fill="black"/>
<path d="M397.011 202.241L331.312 201.943L331.277 209.795L396.975 210.093L397.011 202.241Z" fill="#7239A2"/>
<path opacity="0.2" d="M397.011 202.241L331.312 201.943L331.277 209.795L396.975 210.093L397.011 202.241Z" fill="white"/>
<path d="M191.151 280.162C191.151 290.846 186.775 300.478 179.768 307.263C176.332 310.589 172.265 313.23 167.77 314.976C163.804 316.516 159.506 317.359 155.017 317.359C135.061 317.359 118.883 300.705 118.883 280.162C118.883 259.619 135.061 242.965 155.017 242.965C174.973 242.965 191.151 259.619 191.151 280.162Z" fill="white"/>
<path d="M154.698 242.934H154.044L152.15 243.073C151.125 243.135 150.107 243.27 149.101 243.477C148.45 243.569 147.804 243.694 147.166 243.853L145.008 244.452C141.335 245.579 137.87 247.295 134.747 249.533C130.622 252.528 127.177 256.361 124.64 260.782C123.148 263.331 121.961 266.046 121.104 268.871C120.202 271.942 119.683 275.113 119.558 278.311C119.475 279.991 119.503 281.674 119.642 283.35C119.642 284.2 119.878 285.049 119.99 285.912C120.083 286.782 120.246 287.644 120.477 288.488C121.729 294.074 124.269 299.291 127.895 303.722C131.521 308.153 136.132 311.675 141.36 314.007C145.145 315.64 149.201 316.551 153.32 316.694C157.574 316.928 161.832 316.318 165.85 314.898L167.075 314.439H167.242L167.381 314.522L167.818 314.744L168.122 314.898L180.331 320.547L183.876 322.187L184.937 323.433L184.149 323.033C184.058 322.75 172.28 304.292 183.876 322.187C182.185 316.948 180.823 312.704 179.234 307.794C179.149 307.53 179.063 307.267 178.978 307.004V306.795L179.131 306.642C183.39 302.353 186.552 297.099 188.348 291.328C189.975 286.051 190.45 280.487 189.74 275.011C189.109 270.145 187.544 265.446 185.132 261.172C183.052 257.501 180.37 254.207 177.196 251.427C174.578 249.226 171.68 247.382 168.578 245.941C166.231 244.929 163.787 244.159 161.283 243.644L158.499 243.185L156.48 243.032L155.255 242.948H154.837C154.976 242.933 155.116 242.933 155.255 242.948H156.494L158.513 243.032L161.297 243.435C163.832 243.913 166.31 244.655 168.69 245.649C171.845 247.072 174.795 248.913 177.461 251.12C180.692 253.888 183.432 257.183 185.564 260.866C188.045 265.185 189.657 269.948 190.311 274.886C191.079 280.446 190.638 286.107 189.016 291.481C187.208 297.373 183.998 302.738 179.66 307.116L179.744 306.754C181.498 312.169 183.322 317.808 185.215 323.614L185.48 324.463L184.686 324.059L167.13 315.163H167.437L166.184 315.622C162.089 317.063 157.752 317.687 153.417 317.46C149.209 317.3 145.068 316.355 141.207 314.675C133.842 311.521 127.714 306.039 123.763 299.069C121.944 295.85 120.616 292.377 119.823 288.766C119.605 287.9 119.443 287.021 119.335 286.135C119.224 285.258 119.043 284.395 119.001 283.531C118.625 278.578 119.148 273.597 120.547 268.83C121.426 265.965 122.646 263.217 124.18 260.643C126.778 256.182 130.295 252.324 134.497 249.325C137.671 247.08 141.194 245.377 144.925 244.285L147.11 243.728C147.754 243.579 148.404 243.462 149.059 243.38C150.075 243.192 151.104 243.08 152.136 243.046L154.044 242.976C154.26 242.947 154.479 242.933 154.698 242.934Z" fill="white"/>
<path d="M183.874 322.187C182.183 316.948 180.821 312.704 179.232 307.794L167.816 314.744L168.12 314.898L180.329 320.547L183.874 322.187Z" fill="white"/>
<path d="M161.006 275.956H158.27L152.352 267.59V262.097C152.352 262.097 148.122 261.829 148.625 269.019C149.128 276.209 148.625 274.378 148.625 274.378C148.625 274.378 139.645 274.378 138.905 275.197C138.166 276.016 138.121 284.739 138.018 289.607C137.961 290.781 138.296 291.94 138.969 292.9C139.641 293.86 140.614 294.567 141.731 294.907C142.044 294.994 142.368 295.039 142.693 295.041C144.941 295.041 156.376 293.21 156.376 293.21H161.095L161.006 275.956Z" fill="#9F36F0"/>
<path d="M168.834 274.482L167.148 293.299H162.473V274.869L168.834 274.482Z" fill="#9F36F0"/>
<path d="M223.254 632.283V620.38L201.911 620.227L201.73 638.228L203.053 638.325C208.942 638.701 233.014 639.258 236.968 638.033C241.367 636.669 223.254 632.283 223.254 632.283Z" fill="#7239A2"/>
<path d="M237.47 636.92C237.47 637.115 229.478 637.282 219.635 637.282C209.792 637.282 201.801 637.115 201.801 636.92C201.801 636.725 209.792 636.558 219.635 636.558C229.478 636.558 237.47 636.725 237.47 636.92Z" fill="#314054"/>
<path d="M223.632 634.72C223.451 634.623 223.632 633.996 224.064 633.328C224.495 632.659 225.08 632.381 225.219 632.52C225.359 632.66 225.066 633.189 224.649 633.759C224.231 634.33 223.813 634.817 223.632 634.72Z" fill="#314054"/>
<path d="M224.995 635.499C224.8 635.499 224.897 634.719 225.315 633.982C225.733 633.244 226.29 632.798 226.443 632.91C226.596 633.021 226.345 633.647 225.956 634.302C225.566 634.956 225.176 635.569 224.995 635.499Z" fill="#314054"/>
<path d="M208.235 636.863C208.151 636.863 207.831 636.613 207.372 636.084C206.811 635.404 206.186 634.779 205.506 634.218C204.837 633.684 204.041 633.333 203.195 633.202C202.541 633.118 202.123 633.202 202.081 633.118C202.039 633.035 202.443 632.742 203.209 632.687C204.219 632.665 205.205 633 205.993 633.633C206.732 634.235 207.354 634.966 207.831 635.791C208.151 636.404 208.318 636.807 208.235 636.863Z" fill="#314054"/>
<path d="M223.702 632.478C223.8 632.645 223.438 633.062 222.825 633.285C222.213 633.508 221.67 633.424 221.642 633.285C221.614 633.146 222.046 632.854 222.575 632.659C223.104 632.464 223.591 632.311 223.702 632.478Z" fill="#314054"/>
<path d="M223.367 631.323C223.367 631.531 222.81 631.698 222.086 631.712C221.362 631.726 220.791 631.559 220.805 631.364C220.819 631.169 221.39 630.988 222.086 630.974C222.782 630.961 223.339 631.128 223.367 631.323Z" fill="#314054"/>
<path d="M275.813 632.283V620.38L254.47 620.227L254.289 638.047L255.612 638.144C261.501 638.52 285.586 639.258 289.526 638.033C293.926 636.669 275.813 632.283 275.813 632.283Z" fill="#7239A2"/>
<path d="M290.026 636.947C290.026 637.142 282.049 637.309 272.192 637.309C262.335 637.309 254.371 637.142 254.371 636.947C254.371 636.752 262.349 636.585 272.192 636.585C282.035 636.585 290.026 636.752 290.026 636.947Z" fill="#314054"/>
<path d="M276.189 634.72C276.022 634.623 276.189 633.996 276.62 633.328C277.052 632.659 277.637 632.381 277.776 632.52C277.915 632.66 277.623 633.189 277.205 633.759C276.787 634.33 276.37 634.817 276.189 634.72Z" fill="#314054"/>
<path d="M277.551 635.499C277.37 635.499 277.453 634.719 277.885 633.982C278.316 633.244 278.859 632.798 279.013 632.91C279.166 633.021 278.901 633.647 278.511 634.302C278.122 634.956 277.746 635.569 277.551 635.499Z" fill="#314054"/>
<path d="M260.789 636.863C260.706 636.863 260.4 636.613 259.926 636.084C259.365 635.404 258.741 634.779 258.061 634.218C257.392 633.684 256.595 633.333 255.75 633.202C255.109 633.118 254.678 633.202 254.636 633.118C254.594 633.035 254.998 632.742 255.763 632.687C256.774 632.665 257.76 633 258.548 633.633C259.29 634.231 259.914 634.963 260.386 635.791C260.706 636.404 260.873 636.807 260.789 636.863Z" fill="#314054"/>
<path d="M276.257 632.478C276.355 632.645 275.993 633.062 275.38 633.285C274.767 633.508 274.224 633.424 274.197 633.285C274.169 633.146 274.6 632.854 275.129 632.659C275.658 632.464 276.146 632.311 276.257 632.478Z" fill="#314054"/>
<path d="M275.95 631.323C275.95 631.531 275.393 631.698 274.67 631.712C273.946 631.726 273.389 631.559 273.403 631.364C273.417 631.169 273.973 630.988 274.67 630.974C275.366 630.961 275.95 631.128 275.95 631.323Z" fill="#314054"/>
<path d="M354.445 278.798C353.888 278.227 352.51 278.506 352.51 278.506C352.648 277.704 352.648 276.885 352.51 276.083C352.26 275.303 350.505 275.457 350.505 275.457C350.424 274.8 350.424 274.136 350.505 273.48C350.519 273.334 350.488 273.188 350.416 273.061C350.344 272.934 350.234 272.832 350.102 272.77C349.272 272.431 348.38 272.27 347.484 272.296C346.412 271.531 350.756 265.446 352.371 263.497C353.986 261.548 353.694 260.031 352.26 260.031C351.271 260.031 346.203 265.878 344.644 267.841C343.085 269.804 338.95 275.262 338.811 270.904C338.671 266.546 336.917 263.261 335.817 262.704C334.718 262.147 333.548 263.456 334.147 264.667C334.673 266.043 335.001 267.487 335.121 268.955C335.272 270.124 335.221 271.311 334.968 272.463C334.507 274.607 333.878 276.711 333.089 278.756H332.977C332.977 278.756 302.599 307.895 300.399 309.97C298.436 311.835 258.953 307.756 251.031 306.921C248.339 306.527 245.621 306.341 242.9 306.364C239.462 306.517 238.849 307.004 235.424 307.046C226.775 307.142 218.146 307.901 209.612 309.315C205.748 309.972 202.139 311.678 199.178 314.246C196.217 316.814 194.019 320.146 192.822 323.878C184.845 348.799 166.774 407.787 163.585 440.922C161.176 445.291 159.001 449.785 157.07 454.385C154.828 460.483 155.371 460.692 156.123 460.831C158.156 461.207 160.467 450.264 161.33 452.909C162.193 455.555 156.944 465.955 159.075 466.261C161.859 466.651 164.073 455.123 164.337 454.204C164.602 453.285 165.98 453.578 165.729 454.441C165.326 455.666 161.414 468.655 164.142 469.073C165.646 469.296 165.813 466.553 165.813 466.553C165.813 466.553 168.597 454.121 169.864 454.371C171.131 454.622 169.781 461.959 169.14 464.409C168.5 466.859 169.391 468.099 170.7 467.5C171.591 467.082 173.721 459.634 174.306 457.211C174.89 454.789 176.352 448.078 178.315 451.963C180.278 455.847 183.258 458.102 184.483 458.158C184.759 458.126 185.019 458.013 185.23 457.832C185.441 457.651 185.593 457.411 185.666 457.143C185.739 456.875 185.731 456.591 185.642 456.328C185.552 456.064 185.386 455.834 185.165 455.666C184.111 454.637 183.207 453.465 182.478 452.185C181.828 451.188 181.357 450.086 181.086 448.928C180.525 446.618 180.198 444.258 180.111 441.883L179.888 440.491C183.007 425.051 191.987 379.734 204.948 350.79L210.267 361.733L212.578 369.835L198.405 404.822L258.855 404.028L249.834 369.306L260.79 333.109C272.638 333.373 303.058 333.819 308.126 331.521C314.502 328.737 347.484 287.082 347.484 287.082C349.634 285.411 351.693 283.626 353.652 281.736C353.652 281.736 355.657 280.051 354.445 278.798Z" fill="#FFBE9D"/>
<path d="M195.745 378.969C197.499 372.982 206.507 343.383 206.507 343.383C206.507 343.383 210.934 367.511 209.764 370.42C208.689 372.911 207.418 375.313 205.964 377.604C195.745 393.155 197.081 400.938 197.081 400.938L258.826 399.058C258.966 390.427 253.856 370.351 252.798 367.149C251.74 363.946 255.262 353.463 255.262 353.463C255.262 353.463 262.223 346.377 261.973 342.729C261.841 339.452 261.435 336.193 260.762 332.983L298.352 334.376L297.168 308.898L243.178 303.496C241.298 308.8 224.299 306.197 224.299 306.197C205.95 306.81 204.808 310.179 197.179 316.11C189.549 322.041 176.922 372.94 176.922 372.94L195.745 378.969Z" fill="#7239A2"/>
<path d="M232.249 372.94C231.179 373.131 230.089 373.188 229.005 373.107C226.987 373.107 224.216 372.968 221.167 372.662C218.118 372.355 215.362 371.924 213.399 371.534C212.316 371.395 211.255 371.123 210.238 370.727C211.327 370.727 212.413 370.83 213.482 371.033C215.459 371.283 218.202 371.632 221.237 371.938C224.272 372.244 227.028 372.453 229.019 372.592C230.105 372.606 231.186 372.722 232.249 372.94Z" fill="#314054"/>
<path d="M236.483 367.691C235.413 368.216 234.281 368.604 233.114 368.847C227.559 370.306 221.829 370.986 216.087 370.866C214.899 370.904 213.711 370.792 212.551 370.532C213.723 370.383 214.905 370.323 216.087 370.351C218.273 370.281 221.28 370.128 224.594 369.738C227.907 369.348 230.859 368.791 232.947 368.346C234.107 368.036 235.289 367.817 236.483 367.691Z" fill="#314054"/>
<path d="M257.253 344.274C257.225 345.336 257.08 346.391 256.821 347.421C256.459 349.356 255.902 352.001 255.192 354.897C254.482 357.793 253.8 360.466 253.187 362.276C252.941 363.312 252.577 364.316 252.102 365.269C252.179 364.211 252.375 363.165 252.686 362.151C253.215 359.979 253.814 357.473 254.482 354.73C255.151 351.987 255.791 349.481 256.32 347.309C256.508 346.264 256.822 345.245 257.253 344.274Z" fill="#314054"/>
<path d="M196.4 375.418C193.179 374.92 190.001 374.18 186.891 373.204C183.714 372.461 180.595 371.484 177.562 370.28C180.783 370.786 183.961 371.526 187.072 372.494C190.25 373.234 193.368 374.211 196.4 375.418Z" fill="#314054"/>
<path d="M261.429 332.677C260.904 332.767 260.367 332.767 259.842 332.677C258.388 332.527 256.96 332.186 255.596 331.66C253.318 330.804 251.245 329.482 249.509 327.777C247.773 326.072 246.413 324.023 245.516 321.761C244.525 319.274 244.101 316.596 244.277 313.923C244.339 311.719 244.998 309.573 246.184 307.714C247.019 306.462 248.265 305.541 249.707 305.11C250.092 305.004 250.49 304.953 250.89 304.957C251.169 304.957 251.308 304.957 251.308 304.957C251.308 304.957 250.723 304.957 249.79 305.333C248.467 305.822 247.345 306.738 246.602 307.937C244.709 310.916 244.18 316.36 246.198 321.441C247.138 323.837 248.609 325.989 250.5 327.734C252.05 329.162 253.835 330.311 255.777 331.131C257.599 331.851 259.494 332.369 261.429 332.677Z" fill="#314054"/>
<path d="M293.884 333.874C293.536 329.604 293.424 325.319 293.55 321.037C293.441 316.759 293.571 312.478 293.94 308.215C294.288 312.479 294.4 316.76 294.274 321.037C294.391 325.32 294.261 329.606 293.884 333.874Z" fill="#314054"/>
<path d="M242.817 305.055C242.97 301.951 243.29 298.442 243.29 298.442C243.29 298.442 250.975 297.593 251.435 289.657C251.894 281.722 251.435 263.414 251.435 263.414L237.512 256.286L222.059 268.44L224.439 308.118L238.612 309.023C239.695 309.053 240.746 308.652 241.535 307.908C242.323 307.165 242.784 306.138 242.817 305.055Z" fill="#FFBE9D"/>
<path d="M244.196 283.378C244.196 283.378 244.196 283.531 244.07 283.712C243.967 283.844 243.833 283.948 243.68 284.016C243.527 284.083 243.36 284.113 243.193 284.102C242.302 284.102 241.439 283.072 241.133 281.875C240.987 281.294 240.987 280.687 241.133 280.106C241.161 279.853 241.253 279.611 241.398 279.402C241.544 279.193 241.74 279.023 241.968 278.909C242.155 278.832 242.365 278.832 242.553 278.909C242.692 278.978 242.804 279.09 242.873 279.229C242.97 279.466 242.873 279.619 242.873 279.605C242.873 279.591 242.873 279.466 242.734 279.327C242.661 279.227 242.554 279.158 242.433 279.132C242.312 279.106 242.186 279.126 242.079 279.188C241.909 279.291 241.767 279.436 241.667 279.608C241.567 279.781 241.513 279.976 241.509 280.176C241.391 280.694 241.391 281.231 241.509 281.749C241.787 282.835 242.539 283.712 243.207 283.796C243.338 283.814 243.471 283.804 243.598 283.768C243.725 283.732 243.843 283.671 243.945 283.587C244.112 283.476 244.168 283.364 244.196 283.378Z" fill="#EB996E"/>
<path d="M256.21 259.126C255.138 255.478 251.254 253.668 247.718 252.666C242.33 251.134 236.51 250.466 231.248 252.401C225.985 254.336 219.664 257.733 219.664 263.539C216.56 263.288 214.778 266.003 213.552 269.372C212.769 271.425 212.3 273.584 212.16 275.777C211.77 283.378 209.64 293.876 204.712 299.444C201.927 302.549 198.071 304.693 196.484 308.564C195.091 311.919 195.815 315.901 194.521 319.298C193.365 322.291 190.817 324.421 188.952 327.024C187.051 329.978 185.933 333.366 185.701 336.871C185.47 340.375 186.133 343.881 187.629 347.058C189.136 350.155 191.257 352.912 193.864 355.162C196.47 357.412 199.507 359.107 202.79 360.145C209.294 362.124 216.228 362.192 222.769 360.34C227.678 359.167 232.257 356.896 236.162 353.699C240.158 350.436 242.903 345.891 243.931 340.835C244.919 335.155 243.332 329.377 242.149 323.725C238.445 305.863 239.503 304.93 244.181 288.348C244.293 288.056 244.348 287.75 244.432 287.457C244.515 287.165 244.557 287.026 244.613 286.803C244.746 286.148 244.816 285.481 244.822 284.812C244.138 285.066 243.397 285.12 242.684 284.967C241.971 284.814 241.317 284.461 240.798 283.949C240.278 283.403 239.915 282.727 239.749 281.991C239.582 281.256 239.618 280.489 239.851 279.772C240.18 278.988 240.669 278.282 241.288 277.699C241.907 277.117 242.641 276.67 243.443 276.389C244.989 275.749 246.646 275.415 248.163 274.705C251.379 273.173 253.607 269.999 255.124 266.671C256.372 264.365 256.757 261.69 256.21 259.126Z" fill="#4A1B00"/>
<path d="M244.753 283.754C245.047 284.189 245.29 284.656 245.477 285.146C245.894 286.023 246.451 287.262 247.064 288.696L247.175 288.961H246.883L245.491 289.086C244.53 289.086 243.723 289.267 242.776 289.253C242.693 289.235 242.617 289.196 242.554 289.14C242.49 289.084 242.442 289.013 242.414 288.933C242.372 288.806 242.372 288.67 242.414 288.543C242.446 288.356 242.488 288.17 242.539 287.986L242.79 286.998C242.916 286.338 243.112 285.694 243.375 285.077C243.349 285.749 243.251 286.416 243.082 287.067L242.887 288.056C242.818 288.39 242.692 288.905 242.887 288.863C243.583 288.863 244.572 288.71 245.491 288.655L246.883 288.529L246.702 288.836C246.103 287.443 245.602 286.135 245.31 285.23C245.053 284.767 244.866 284.27 244.753 283.754Z" fill="#7239A2"/>
<path d="M197.082 400.937L258.827 399.058L285.697 503.948L280.754 624.264H248.107L252.102 506.509L228.226 433.487L231.901 628.928L198.905 629.415L195.439 445.711C195.286 440.602 193.615 429.088 194.242 424.02L197.082 400.937Z" fill="#314054"/>
<path d="M236.44 434.977C235.429 435.041 234.415 434.98 233.419 434.796C231.553 434.573 229.006 434.183 226.207 433.627C223.409 433.07 220.903 432.429 219.093 431.914C218.126 431.701 217.19 431.365 216.309 430.912C216.309 430.703 220.847 431.789 226.416 432.917C231.985 434.044 236.468 434.768 236.44 434.977Z" fill="#455A64"/>
<path d="M280.42 617.665C280.42 617.86 273.028 618.027 263.909 618.027C254.789 618.027 247.383 617.86 247.383 617.665C247.383 617.47 254.776 617.303 263.909 617.303C273.042 617.303 280.42 617.456 280.42 617.665Z" fill="#455A64"/>
<path d="M231.61 623.846C231.61 624.055 224.426 624.208 215.571 624.208C206.717 624.208 199.547 624.055 199.547 623.846C199.547 623.638 206.731 623.484 215.571 623.484C224.412 623.484 231.61 623.651 231.61 623.846Z" fill="#455A64"/>
<path d="M227.35 623.346C227.156 623.346 226.292 580.646 225.415 527.978C224.538 475.31 224.023 432.583 224.204 432.583C224.385 432.583 225.276 475.269 226.139 527.964C227.002 580.66 227.559 623.346 227.35 623.346Z" fill="#455A64"/>
<path d="M276.035 617.664C276.02 617.474 276.02 617.284 276.035 617.094V615.422C276.035 613.919 276.146 611.761 276.23 609.018C276.425 603.449 276.703 595.361 277.051 585.448C277.803 565.511 278.861 538.03 280.017 507.693C280.017 507.401 280.017 507.122 280.017 506.872V506.969C272.708 477.733 266.095 451.196 261.291 431.997L255.723 409.29C255.082 406.631 254.595 404.557 254.247 403.109C254.08 402.427 253.968 401.897 253.871 401.493C253.817 401.312 253.784 401.125 253.773 400.938C253.846 401.112 253.902 401.295 253.94 401.48C254.052 401.87 254.191 402.399 254.386 403.068C254.762 404.46 255.305 406.576 256.001 409.221C257.393 414.595 259.356 422.335 261.807 431.872C266.651 451.057 273.334 477.524 280.741 506.802V506.9C280.741 507.15 280.741 507.443 280.741 507.721C279.502 538.058 278.374 565.526 277.553 585.463C277.121 595.389 276.759 603.421 276.508 609.018C276.369 611.803 276.258 613.919 276.188 615.422C276.188 616.132 276.105 616.69 276.091 617.094C276.093 617.286 276.074 617.476 276.035 617.664Z" fill="#455A64"/>
<path d="M265.386 504.422C263.041 505.193 260.625 505.729 258.174 506.023C255.167 506.538 252.605 506.9 251.45 506.956V506.677C251.826 506.789 252.02 506.858 252.02 506.914C252.02 506.97 251.784 506.914 251.394 506.914H250.559L251.394 506.663C252.48 506.343 255.042 505.814 258.049 505.271C260.461 504.748 262.918 504.463 265.386 504.422Z" fill="#455A64"/>
<path d="M264.815 508.417C262.644 508.517 260.468 508.419 258.314 508.125C256.139 508.08 253.973 507.843 251.84 507.415C256.191 507.06 260.571 507.398 264.815 508.417Z" fill="#455A64"/>
<path opacity="0.2" d="M196.816 403.151C197.548 404.09 198.469 404.864 199.519 405.423C200.57 405.982 201.727 406.313 202.914 406.395C205.401 406.689 207.917 406.642 210.391 406.255C226.332 404.487 243.219 402.858 258.826 399.058C238.625 400.185 217.282 399.809 197.081 400.937L196.872 402.663" fill="black"/>
<g opacity="0.2">
<path d="M217.629 431.622L229.017 475.811L228.224 433.488L217.629 431.622Z" fill="black"/>
</g>
<path d="M563.686 269.294C562.541 269.424 561.815 268.098 562.541 267.202L571.916 255.635C572.152 255.344 572.249 254.964 572.183 254.595L569.403 239.175C569.183 237.957 570.639 237.16 571.547 238.001L583.043 248.647C583.318 248.902 583.691 249.024 584.063 248.982L598.859 247.312C600.004 247.182 600.73 248.508 600.004 249.403L590.629 260.971C590.393 261.262 590.296 261.642 590.362 262.011L593.142 277.431C593.362 278.648 591.906 279.445 590.998 278.605L579.502 267.959C579.227 267.704 578.854 267.582 578.482 267.624L563.686 269.294Z" fill="url(#paint4_linear_1182_2807)"/>
<path d="M542.182 264.609C542.586 265.714 541.419 266.737 540.376 266.193L532.113 261.883C531.78 261.709 531.387 261.689 531.038 261.829L522.245 265.347C521.117 265.799 520.048 264.581 520.642 263.521L525.275 255.26C525.459 254.932 525.49 254.541 525.361 254.188L522.163 245.434C521.759 244.329 522.926 243.305 523.969 243.849L532.232 248.16C532.565 248.334 532.958 248.353 533.307 248.214L542.1 244.695C543.228 244.244 544.297 245.462 543.702 246.522L539.07 254.783C538.886 255.11 538.854 255.502 538.983 255.855L542.182 264.609Z" fill="url(#paint5_linear_1182_2807)"/>
<path d="M588.938 317.124C589.326 318.221 588.176 319.23 587.139 318.702L579.639 314.888C579.305 314.718 578.913 314.703 578.565 314.845L570.6 318.12C569.465 318.587 568.382 317.352 568.992 316.287L573.276 308.816C573.462 308.49 573.498 308.099 573.373 307.745L570.567 299.813C570.179 298.716 571.329 297.708 572.366 298.235L579.866 302.049C580.2 302.219 580.592 302.235 580.94 302.092L588.905 298.817C590.04 298.35 591.123 299.585 590.513 300.65L586.229 308.121C586.043 308.447 586.007 308.838 586.132 309.192L588.938 317.124Z" fill="url(#paint6_linear_1182_2807)"/>
<path d="M177.152 166.609C178.072 166.825 178.791 165.816 178.286 165.017L171.769 154.699C171.605 154.439 171.562 154.121 171.652 153.827L175.399 141.543C175.695 140.573 174.587 139.784 173.768 140.381L163.385 147.939C163.136 148.12 162.821 148.184 162.522 148.114L150.64 145.33C149.72 145.114 149.002 146.123 149.506 146.922L156.023 157.24C156.187 157.5 156.23 157.818 156.141 158.112L152.393 170.396C152.097 171.366 153.205 172.155 154.025 171.558L164.408 163.999C164.656 163.818 164.971 163.755 165.27 163.825L177.152 166.609Z" fill="url(#paint7_linear_1182_2807)"/>
<path d="M195.105 164.866C194.67 165.727 195.521 166.672 196.423 166.33L203.564 163.617C203.852 163.507 204.173 163.529 204.444 163.676L211.262 167.387C212.137 167.863 213.124 166.975 212.742 166.055L209.767 158.885C209.649 158.6 209.661 158.278 209.8 158.003L213.246 151.186C213.681 150.326 212.83 149.38 211.929 149.723L204.788 152.435C204.5 152.545 204.179 152.523 203.908 152.376L197.09 148.665C196.215 148.189 195.228 149.078 195.609 149.998L198.585 157.168C198.703 157.452 198.691 157.774 198.552 158.049L195.105 164.866Z" fill="url(#paint8_linear_1182_2807)"/>
<path d="M151.991 203.109C151.569 203.965 152.408 204.896 153.303 204.567L159.775 202.185C160.063 202.078 160.384 202.103 160.653 202.253L166.821 205.686C167.7 206.175 168.701 205.274 168.306 204.349L165.539 197.855C165.419 197.572 165.427 197.25 165.563 196.974L168.611 190.788C169.032 189.932 168.194 189 167.299 189.33L160.827 191.712C160.538 191.818 160.217 191.793 159.949 191.644L153.78 188.211C152.901 187.722 151.901 188.623 152.295 189.548L155.062 196.042C155.183 196.325 155.174 196.647 155.038 196.923L151.991 203.109Z" fill="url(#paint9_linear_1182_2807)"/>
<defs>
<filter id="filter0_f_1182_2807" x="0" y="0" width="677" height="711" filterUnits="userSpaceOnUse" color-interpolation-filters="sRGB">
<feFlood flood-opacity="0" result="BackgroundImageFix"/>
<feBlend mode="normal" in="SourceGraphic" in2="BackgroundImageFix" result="shape"/>
<feGaussianBlur stdDeviation="50" result="effect1_foregroundBlur_1182_2807"/>
</filter>
<radialGradient id="paint0_radial_1182_2807" cx="0" cy="0" r="1" gradientUnits="userSpaceOnUse" gradientTransform="translate(395.801 364.794) rotate(83.8051) scale(123.79 247.712)">
<stop stop-color="white"/>
<stop offset="1" stop-color="#9F36F0"/>
</radialGradient>
<radialGradient id="paint1_radial_1182_2807" cx="0" cy="0" r="1" gradientUnits="userSpaceOnUse" gradientTransform="translate(395.801 364.794) rotate(83.8051) scale(123.79 247.712)">
<stop stop-color="white"/>
<stop offset="1" stop-color="#9F36F0"/>
</radialGradient>
<radialGradient id="paint2_radial_1182_2807" cx="0" cy="0" r="1" gradientUnits="userSpaceOnUse" gradientTransform="translate(395.801 364.794) rotate(83.8051) scale(123.79 247.712)">
<stop stop-color="white"/>
<stop offset="1" stop-color="#9F36F0"/>
</radialGradient>
<linearGradient id="paint3_linear_1182_2807" x1="312.528" y1="257.641" x2="437.501" y2="506.8" gradientUnits="userSpaceOnUse">
<stop stop-color="white"/>
<stop offset="1" stop-color="#9F36F0"/>
</linearGradient>
<linearGradient id="paint4_linear_1182_2807" x1="630.78" y1="254.301" x2="534.558" y2="289.085" gradientUnits="userSpaceOnUse">
<stop offset="0.0911669" stop-color="#FBF5FF" stop-opacity="0.75"/>
<stop offset="0.51" stop-color="#9F36F0" stop-opacity="0.61"/>
<stop offset="0.780797" stop-color="#C5A2FE" stop-opacity="0.881155"/>
<stop offset="1" stop-color="#9F36F0"/>
</linearGradient>
<linearGradient id="paint5_linear_1182_2807" x1="630.778" y1="254.301" x2="534.556" y2="289.085" gradientUnits="userSpaceOnUse">
<stop offset="0.0911669" stop-color="#FBF5FF" stop-opacity="0.75"/>
<stop offset="0.51" stop-color="#9F36F0" stop-opacity="0.61"/>
<stop offset="0.780797" stop-color="#C5A2FE" stop-opacity="0.881155"/>
<stop offset="1" stop-color="#9F36F0"/>
</linearGradient>
<linearGradient id="paint6_linear_1182_2807" x1="630.78" y1="254.301" x2="534.558" y2="289.085" gradientUnits="userSpaceOnUse">
<stop offset="0.0911669" stop-color="#FBF5FF" stop-opacity="0.75"/>
<stop offset="0.51" stop-color="#9F36F0" stop-opacity="0.61"/>
<stop offset="0.780797" stop-color="#C5A2FE" stop-opacity="0.881155"/>
<stop offset="1" stop-color="#9F36F0"/>
</linearGradient>
<linearGradient id="paint7_linear_1182_2807" x1="123.985" y1="147.945" x2="198.955" y2="185.523" gradientUnits="userSpaceOnUse">
<stop offset="0.0911669" stop-color="#FBF5FF" stop-opacity="0.75"/>
<stop offset="0.51" stop-color="#9F36F0" stop-opacity="0.61"/>
<stop offset="0.780797" stop-color="#C5A2FE" stop-opacity="0.881155"/>
<stop offset="1" stop-color="#9F36F0"/>
</linearGradient>
<linearGradient id="paint8_linear_1182_2807" x1="123.985" y1="147.945" x2="198.955" y2="185.523" gradientUnits="userSpaceOnUse">
<stop offset="0.0911669" stop-color="#FBF5FF" stop-opacity="0.75"/>
<stop offset="0.51" stop-color="#9F36F0" stop-opacity="0.61"/>
<stop offset="0.780797" stop-color="#C5A2FE" stop-opacity="0.881155"/>
<stop offset="1" stop-color="#9F36F0"/>
</linearGradient>
<linearGradient id="paint9_linear_1182_2807" x1="123.983" y1="147.945" x2="198.953" y2="185.523" gradientUnits="userSpaceOnUse">
<stop offset="0.0911669" stop-color="#FBF5FF" stop-opacity="0.75"/>
<stop offset="0.51" stop-color="#9F36F0" stop-opacity="0.61"/>
<stop offset="0.780797" stop-color="#C5A2FE" stop-opacity="0.881155"/>
<stop offset="1" stop-color="#9F36F0"/>
</linearGradient>
</defs>
</svg>
