<svg width="677" height="711" viewBox="0 0 677 711" fill="none" xmlns="http://www.w3.org/2000/svg">
<g clip-path="url(#clip0_1182_2912)">
<g opacity="0.15" filter="url(#filter0_f_1182_2912)">
<path d="M493.685 345.902C493.685 447.884 405.556 530.556 296.843 530.556C188.129 530.556 100 447.884 100 345.902C100 243.92 188.129 161.247 296.843 161.247C405.556 161.247 493.685 243.92 493.685 345.902Z" fill="url(#paint0_radial_1182_2912)"/>
<path d="M572.422 257.231C572.422 344.067 497.41 414.462 404.877 414.462C312.345 414.462 237.332 344.067 237.332 257.231C237.332 170.395 312.345 100 404.877 100C497.41 100 572.422 170.395 572.422 257.231Z" fill="url(#paint1_radial_1182_2912)"/>
<path d="M577 453.769C577 540.605 501.987 611 409.455 611C316.922 611 241.91 540.605 241.91 453.769C241.91 366.933 316.922 296.538 409.455 296.538C501.987 296.538 577 366.933 577 453.769Z" fill="url(#paint2_radial_1182_2912)"/>
</g>
<path d="M559.686 498.267C544.14 528.871 513.928 551.092 480.761 563.488C447.594 575.884 411.494 579.319 375.884 579.908C373.643 579.949 371.401 579.969 369.159 579.989C322.13 580.264 274.442 575.285 230.848 558.926C227.101 557.524 223.376 556.03 219.684 554.455C171.093 533.646 128.692 495.94 112.276 447.575C105.428 427.406 103.198 405.966 104.246 384.791C105.462 360.406 111.339 336.274 121.187 313.758C137.781 275.848 165.963 236.323 205.075 217.84C299.111 173.428 388.921 205.312 423.07 237.806C459.784 272.739 473.958 329.69 509.724 365.516C522.727 378.532 539.378 388.043 551.289 401.983C573.805 428.33 575.233 467.673 559.686 498.267Z" fill="#F0DCFF"/>
<path d="M559.686 498.267C544.14 528.871 513.928 551.092 480.761 563.488C447.594 575.884 411.494 579.319 375.884 579.908C373.643 579.949 371.401 579.969 369.159 579.989C322.13 580.264 274.442 575.285 230.848 558.926C227.101 557.524 223.376 556.03 219.684 554.455C171.093 533.646 128.692 495.94 112.276 447.575C105.428 427.406 103.198 405.966 104.246 384.791C105.462 360.406 111.339 336.274 121.187 313.758C137.781 275.848 165.963 236.323 205.075 217.84C299.111 173.428 388.921 205.312 423.07 237.806C459.784 272.739 473.958 329.69 509.724 365.516C522.727 378.532 539.378 388.043 551.289 401.983C573.805 428.33 575.233 467.673 559.686 498.267Z" fill="url(#paint3_linear_1182_2912)" fill-opacity="0.15"/>
<path d="M554.04 533.156C554.267 532.008 554.369 530.763 553.851 529.713C552.679 527.337 549.303 527.335 547.096 525.87C544.289 524.008 543.83 519.821 545.309 516.793C546.787 513.767 549.703 511.713 552.665 510.107C558.429 506.982 564.779 505.056 570.564 501.97C576.349 498.885 581.779 494.263 583.632 487.974C578.711 485.174 573.324 483.198 567.761 482.152C569.622 472.092 580.454 466.957 588.775 461.004C597.289 454.914 604.151 446.536 608.446 436.99C609.621 434.377 610.566 431.181 608.994 428.787C607.932 427.169 605.951 426.376 604.026 426.161C590.153 424.611 581.687 446.846 567.978 444.217C569.736 442.029 567.471 438.45 564.679 438.177C561.886 437.902 559.339 439.86 557.654 442.102C553.136 448.112 552.76 456.133 551.399 463.528C550.038 470.923 546.603 479.052 539.431 481.31C536.288 482.3 532.778 482.006 529.818 483.45C523.897 486.339 523.055 494.305 523.199 500.891C523.343 507.477 523.041 515.324 517.472 518.841C513.773 521.176 508.896 520.693 504.986 522.654C496.49 526.912 497.165 538.875 495.489 548.228C494.255 555.103 491.049 561.611 486.347 566.782C477.405 576.614 484.027 581.306 494.003 574.767C499.275 571.312 503.911 566.967 509.373 563.802C523.509 555.608 550.213 552.514 554.04 533.156Z" fill="#8758EA"/>
<path d="M591.241 445.626C580.279 454.034 569.564 462.467 560.64 473.117C551.356 484.198 545.316 497.021 538.705 509.757C532.573 521.571 525.107 532.586 516.799 542.974C512.319 548.575 507.608 553.991 502.764 559.281C498.463 563.976 494.105 569.25 488.996 573.067C488.328 573.567 487.422 572.743 487.929 572.043C492.056 566.342 497.576 561.503 502.304 556.286C507.121 550.972 511.795 545.523 516.233 539.887C525.526 528.085 533.204 515.534 539.95 502.128C545.812 490.483 552.008 479.312 560.717 469.514C569.28 459.88 579.29 451.234 590.058 444.151C591.055 443.495 592.226 444.871 591.241 445.626Z" fill="white"/>
<path d="M159.789 436.782C162.739 420.698 164.381 403.96 159.989 389.936C157.335 381.463 155.317 377.542 151.953 366.912C149.04 357.712 144.911 352.607 141.295 338.542C140.442 360.052 139.52 381.98 132.951 403.433C129.505 414.691 124.548 425.646 121.855 437.016C115.618 463.352 122.435 489.268 135.417 507.798C142.071 517.298 150.645 525.418 161.562 527.951C154.358 526.28 152.564 499.307 152.02 491.961C150.709 474.259 156.472 454.863 159.789 436.782Z" fill="#8758EA"/>
<path d="M141.51 339.328C143.352 353.806 143.259 368.889 141.01 384.204C138.888 398.65 134.329 413.249 132.826 427.653C130.798 447.09 135.218 471.392 148.109 481.916C148.742 482.433 149.661 481.195 149.183 480.536C138.173 465.29 131.832 444.967 135.817 422.377C138.363 407.944 142.168 393.553 143.763 379.113C145.291 365.281 145.028 351.778 143.144 338.762C142.978 337.622 141.362 338.168 141.51 339.328Z" fill="white"/>
<path d="M379.448 510H193.376C190.384 509.957 187.519 508.769 185.355 506.675C183.191 504.581 181.888 501.735 181.708 498.708L165.022 171.277C164.929 169.821 165.134 168.361 165.625 166.988C166.115 165.616 166.88 164.361 167.872 163.303C168.863 162.244 170.06 161.404 171.386 160.836C172.713 160.268 174.141 159.983 175.582 160.001H361.653C364.644 160.04 367.509 161.224 369.674 163.316C371.838 165.408 373.141 168.252 373.321 171.277L389.978 498.708C390.071 500.163 389.866 501.621 389.378 502.992C388.889 504.363 388.127 505.618 387.139 506.677C386.151 507.736 384.958 508.578 383.635 509.15C382.311 509.721 380.886 510.011 379.448 510Z" fill="#212121"/>
<path d="M364.573 509H198.35C195.677 508.958 193.117 507.808 191.183 505.779C189.25 503.751 188.086 500.995 187.926 498.063L173.019 180.923C172.937 179.512 173.12 178.098 173.558 176.769C173.996 175.44 174.68 174.224 175.565 173.199C176.451 172.174 177.52 171.36 178.705 170.81C179.89 170.259 181.166 169.984 182.453 170.001H348.677C351.348 170.039 353.908 171.186 355.842 173.212C357.775 175.238 358.939 177.993 359.101 180.923L373.981 498.063C374.063 499.472 373.88 500.885 373.444 502.213C373.008 503.54 372.327 504.755 371.444 505.781C370.561 506.808 369.496 507.623 368.314 508.177C367.131 508.73 365.858 509.01 364.573 509Z" fill="#212121"/>
<path d="M333.355 169H313.883V174H333.355V169Z" fill="#6C6C6C"/>
<path d="M307.135 169H300V174H307.135V169Z" fill="#6C6C6C"/>
<path d="M371.942 489.987H203.582C200.871 489.961 198.27 488.909 196.304 487.042C194.337 485.175 193.151 482.633 192.984 479.927L177.914 187.505C177.83 186.203 178.016 184.899 178.461 183.672C178.905 182.446 179.598 181.325 180.496 180.379C181.393 179.433 182.477 178.683 183.679 178.176C184.88 177.669 186.173 177.415 187.477 177.431H355.837C358.548 177.461 361.148 178.517 363.111 180.386C365.075 182.255 366.258 184.799 366.422 187.505L381.492 479.927C381.575 481.227 381.39 482.53 380.946 483.754C380.503 484.979 379.811 486.098 378.914 487.043C378.018 487.987 376.935 488.737 375.736 489.243C374.536 489.75 373.244 490.003 371.942 489.987Z" fill="white"/>
<path d="M371.941 483.267H203.581C202.594 483.233 201.653 482.837 200.938 482.155C200.223 481.473 199.784 480.553 199.703 479.568L184.62 187.16C184.586 186.771 184.635 186.379 184.763 186.01C184.891 185.642 185.097 185.304 185.365 185.021C185.634 184.738 185.961 184.515 186.322 184.368C186.684 184.221 187.072 184.151 187.463 184.165H355.823C356.808 184.203 357.745 184.599 358.457 185.281C359.169 185.963 359.606 186.881 359.687 187.864L374.839 480.272C374.872 480.659 374.823 481.05 374.695 481.417C374.567 481.784 374.363 482.12 374.096 482.403C373.828 482.686 373.505 482.909 373.145 483.058C372.786 483.207 372.399 483.278 372.01 483.267H371.941ZM187.463 184.51C187.12 184.499 186.778 184.56 186.46 184.688C186.141 184.816 185.853 185.01 185.614 185.256C185.383 185.51 185.207 185.809 185.095 186.134C184.984 186.459 184.94 186.804 184.965 187.146L200.035 479.554C200.111 480.45 200.513 481.287 201.164 481.907C201.814 482.527 202.669 482.888 203.567 482.922H371.927C372.269 482.935 372.609 482.876 372.925 482.747C373.242 482.618 373.527 482.424 373.763 482.176C373.999 481.925 374.179 481.627 374.291 481.301C374.402 480.975 374.444 480.629 374.411 480.286L359.356 187.878C359.282 186.983 358.883 186.147 358.235 185.526C357.587 184.906 356.733 184.544 355.837 184.51H187.463Z" fill="white"/>
<path d="M313.055 290.737C332.204 271.087 330.957 238.814 310.269 218.655C289.582 198.495 257.288 198.082 238.139 217.732C218.99 237.382 220.237 269.655 240.924 289.814C261.612 309.974 293.906 310.387 313.055 290.737Z" fill="#7239A2"/>
<path d="M316.88 254.242C317.266 261.023 315.902 267.79 312.919 273.893C309.69 280.438 304.678 285.939 298.459 289.76C292.24 293.581 285.069 295.567 277.771 295.49C270.207 295.422 262.79 293.397 256.242 289.612C249.693 285.828 244.235 280.412 240.4 273.893C236.826 267.931 234.769 261.183 234.411 254.242C234.071 248.918 234.833 243.581 236.65 238.566C238.467 233.55 241.3 228.964 244.971 225.093C248.642 221.223 253.072 218.151 257.985 216.072C262.897 213.992 268.186 212.949 273.52 213.007C284.622 213.123 295.268 217.441 303.314 225.092C311.359 232.744 316.207 243.159 316.88 254.242Z" fill="white"/>
<path d="M312.519 273.041C309.29 279.586 304.277 285.086 298.059 288.907C291.84 292.728 284.669 294.715 277.37 294.638C269.807 294.569 262.39 292.545 255.841 288.76C249.293 284.975 243.835 279.56 240 273.041C250.487 265.798 262.942 261.945 275.687 262.001C288.772 262.05 301.564 265.884 312.519 273.041Z" fill="#9F36F0"/>
<path d="M288.379 253.283C295.278 246.203 294.826 234.574 287.37 227.308C279.914 220.042 268.276 219.891 261.377 226.97C254.478 234.05 254.93 245.679 262.386 252.945C269.842 260.211 281.48 260.363 288.379 253.283Z" fill="#9F36F0"/>
<path d="M347.806 376.22H215.975C214.826 376.208 213.725 375.761 212.893 374.97C212.061 374.179 211.559 373.102 211.49 371.955L210.496 352.635C210.462 352.086 210.541 351.535 210.73 351.018C210.918 350.5 211.211 350.027 211.591 349.628C211.97 349.229 212.428 348.913 212.935 348.699C213.443 348.485 213.989 348.378 214.539 348.385H346.371C347.517 348.397 348.616 348.841 349.448 349.63C350.28 350.418 350.783 351.492 350.856 352.635L351.849 371.955C351.886 372.506 351.808 373.058 351.62 373.577C351.433 374.096 351.14 374.571 350.76 374.972C350.38 375.372 349.922 375.69 349.414 375.904C348.905 376.119 348.358 376.227 347.806 376.22Z" fill="white"/>
<path d="M347.812 375.72H347.806H215.977C214.956 375.709 213.978 375.311 213.238 374.608C212.498 373.904 212.051 372.946 211.989 371.927V371.925L210.995 352.61V352.604C210.965 352.123 211.035 351.642 211.2 351.189C211.364 350.736 211.621 350.322 211.953 349.973C212.285 349.624 212.686 349.347 213.13 349.16C213.574 348.973 214.051 348.879 214.533 348.885H214.539H346.368C347.387 348.896 348.364 349.292 349.104 349.993C349.843 350.693 350.291 351.647 350.357 352.664V352.667L351.35 371.981V371.988C351.382 372.47 351.314 372.953 351.15 373.408C350.986 373.862 350.73 374.277 350.397 374.628C350.065 374.978 349.664 375.256 349.219 375.444C348.774 375.632 348.295 375.726 347.812 375.72Z" stroke="black" stroke-opacity="0.1"/>
<path opacity="0.3" d="M307.44 337.718H252.378C251.226 337.709 250.119 337.262 249.284 336.468C248.448 335.673 247.946 334.591 247.88 333.44L247.673 329.3C247.636 328.749 247.715 328.197 247.902 327.678C248.09 327.159 248.382 326.684 248.762 326.284C249.142 325.883 249.6 325.565 250.109 325.351C250.617 325.136 251.164 325.029 251.716 325.035H306.764C307.913 325.047 309.014 325.494 309.846 326.285C310.678 327.076 311.18 328.153 311.249 329.3L311.47 333.44C311.504 333.989 311.425 334.54 311.238 335.058C311.05 335.576 310.759 336.05 310.381 336.451C310.004 336.852 309.548 337.171 309.042 337.389C308.536 337.607 307.991 337.719 307.44 337.718Z" fill="#7239A2"/>
<path opacity="0.3" d="M327.919 469.108H245.436C243.483 469.084 241.611 468.322 240.196 466.976C238.781 465.63 237.927 463.799 237.805 461.849L237.322 452.327C237.273 451.391 237.416 450.455 237.74 449.576C238.065 448.697 238.566 447.894 239.211 447.214C239.857 446.535 240.634 445.995 241.496 445.626C242.357 445.257 243.285 445.067 244.222 445.068H326.677C328.63 445.092 330.502 445.854 331.917 447.2C333.332 448.546 334.187 450.378 334.308 452.327L334.791 461.849C334.84 462.783 334.698 463.716 334.375 464.594C334.052 465.471 333.554 466.273 332.911 466.952C332.268 467.631 331.495 468.172 330.636 468.542C329.778 468.913 328.854 469.105 327.919 469.108Z" fill="#7239A2"/>
<path d="M350.222 422.947H218.377C217.23 422.932 216.13 422.485 215.299 421.694C214.467 420.903 213.965 419.828 213.892 418.683L212.898 399.363C212.864 398.813 212.944 398.261 213.132 397.743C213.32 397.225 213.613 396.751 213.992 396.351C214.372 395.951 214.829 395.634 215.337 395.418C215.844 395.203 216.39 395.094 216.942 395.099H348.773C349.921 395.111 351.022 395.557 351.855 396.348C352.687 397.14 353.188 398.217 353.258 399.363L354.266 418.683C354.298 419.233 354.217 419.783 354.028 420.3C353.839 420.818 353.546 421.291 353.167 421.69C352.788 422.09 352.331 422.408 351.825 422.624C351.318 422.84 350.773 422.95 350.222 422.947Z" fill="white"/>
<path d="M351.51 396.711C350.77 396.007 349.791 395.61 348.77 395.599H216.942H216.937C216.455 395.595 215.976 395.69 215.532 395.878C215.088 396.067 214.687 396.345 214.355 396.695C214.023 397.046 213.767 397.46 213.602 397.914C213.437 398.368 213.367 398.85 213.397 399.332L213.398 399.337L214.391 418.654C214.457 419.672 214.904 420.629 215.643 421.332C216.383 422.035 217.36 422.433 218.38 422.447H350.222H350.225C350.707 422.45 351.185 422.353 351.628 422.164C352.072 421.975 352.472 421.696 352.804 421.346C353.136 420.996 353.393 420.582 353.558 420.129C353.724 419.676 353.794 419.194 353.766 418.712V418.709L352.759 399.393C352.759 399.392 352.759 399.391 352.759 399.39C352.696 398.371 352.25 397.414 351.51 396.711ZM351.51 396.711L351.855 396.348" stroke="black" stroke-opacity="0.1"/>
<path d="M232.699 362.296C232.737 362.906 232.648 363.517 232.44 364.091C232.231 364.665 231.906 365.19 231.485 365.633C231.064 366.076 230.556 366.428 229.993 366.666C229.431 366.903 228.825 367.023 228.214 367.016C226.944 367.001 225.728 366.505 224.809 365.63C223.89 364.754 223.336 363.563 223.26 362.296C223.22 361.687 223.306 361.076 223.513 360.502C223.72 359.928 224.044 359.403 224.464 358.959C224.884 358.516 225.391 358.165 225.953 357.927C226.515 357.689 227.12 357.569 227.731 357.576C229.001 357.591 230.22 358.086 231.141 358.961C232.062 359.837 232.619 361.028 232.699 362.296Z" fill="#9F36F0"/>
<path d="M247.232 362.296C247.272 362.905 247.185 363.516 246.978 364.09C246.771 364.664 246.447 365.19 246.027 365.633C245.607 366.076 245.101 366.427 244.538 366.665C243.976 366.903 243.371 367.023 242.761 367.016C241.49 367.004 240.272 366.51 239.352 365.633C238.432 364.757 237.88 363.564 237.806 362.296C237.766 361.687 237.853 361.076 238.06 360.502C238.267 359.928 238.591 359.403 239.011 358.959C239.431 358.516 239.938 358.165 240.5 357.927C241.062 357.689 241.667 357.569 242.278 357.576C243.548 357.588 244.766 358.082 245.686 358.959C246.606 359.835 247.158 361.028 247.232 362.296Z" fill="#9F36F0"/>
<path d="M261.682 362.296C261.722 362.905 261.636 363.516 261.429 364.09C261.221 364.664 260.898 365.19 260.478 365.633C260.058 366.076 259.551 366.427 258.989 366.665C258.427 366.903 257.821 367.023 257.211 367.016C255.94 367.001 254.722 366.506 253.801 365.631C252.879 364.756 252.323 363.564 252.243 362.296C252.205 361.686 252.293 361.075 252.502 360.501C252.711 359.927 253.036 359.402 253.457 358.959C253.878 358.516 254.385 358.164 254.948 357.927C255.511 357.689 256.117 357.57 256.728 357.576C257.997 357.592 259.214 358.087 260.133 358.962C261.052 359.838 261.606 361.029 261.682 362.296Z" fill="#9F36F0"/>
<path d="M276.241 362.296C276.279 362.905 276.191 363.515 275.983 364.088C275.775 364.661 275.451 365.185 275.032 365.628C274.612 366.071 274.106 366.422 273.545 366.661C272.984 366.9 272.379 367.02 271.77 367.015C270.499 367.001 269.281 366.506 268.359 365.631C267.438 364.755 266.882 363.564 266.802 362.296C266.764 361.687 266.851 361.077 267.059 360.504C267.267 359.931 267.591 359.406 268.011 358.964C268.43 358.521 268.936 358.169 269.497 357.931C270.059 357.692 270.663 357.571 271.273 357.576C272.543 357.591 273.762 358.086 274.683 358.961C275.604 359.836 276.161 361.028 276.241 362.296Z" fill="#9F36F0"/>
<path d="M235.143 408.995C235.183 409.604 235.097 410.215 234.889 410.789C234.682 411.364 234.358 411.889 233.939 412.332C233.519 412.775 233.012 413.127 232.45 413.365C231.888 413.603 231.282 413.722 230.672 413.715C229.401 413.7 228.183 413.205 227.262 412.33C226.34 411.455 225.784 410.264 225.704 408.995C225.666 408.385 225.754 407.774 225.963 407.2C226.172 406.626 226.497 406.101 226.918 405.658C227.339 405.215 227.846 404.864 228.409 404.626C228.972 404.388 229.578 404.269 230.189 404.276C231.458 404.291 232.675 404.786 233.594 405.662C234.513 406.537 235.066 407.728 235.143 408.995Z" fill="#9F36F0"/>
<path d="M249.648 408.995C249.686 409.604 249.598 410.214 249.39 410.787C249.182 411.36 248.858 411.885 248.439 412.328C248.019 412.77 247.513 413.122 246.952 413.361C246.391 413.599 245.787 413.72 245.177 413.715C243.906 413.7 242.688 413.205 241.767 412.33C240.845 411.455 240.289 410.264 240.209 408.995C240.169 408.386 240.255 407.775 240.462 407.201C240.67 406.627 240.993 406.102 241.413 405.659C241.833 405.215 242.34 404.864 242.902 404.626C243.464 404.388 244.07 404.269 244.68 404.276C245.951 404.291 247.169 404.785 248.09 405.661C249.011 406.536 249.568 407.727 249.648 408.995Z" fill="#9F36F0"/>
<path d="M264.152 408.995C264.19 409.605 264.102 410.216 263.893 410.79C263.684 411.365 263.359 411.89 262.938 412.333C262.517 412.776 262.009 413.127 261.446 413.365C260.884 413.603 260.278 413.722 259.667 413.715C258.397 413.703 257.178 413.209 256.258 412.333C255.339 411.456 254.786 410.264 254.713 408.995C254.673 408.386 254.759 407.775 254.966 407.201C255.174 406.627 255.497 406.102 255.917 405.659C256.337 405.215 256.844 404.864 257.406 404.626C257.968 404.388 258.573 404.269 259.184 404.276C260.455 404.291 261.673 404.785 262.594 405.661C263.515 406.536 264.072 407.727 264.152 408.995Z" fill="#9F36F0"/>
<path d="M278.639 408.995C278.679 409.604 278.593 410.215 278.386 410.789C278.178 411.364 277.855 411.889 277.435 412.332C277.015 412.775 276.508 413.127 275.946 413.365C275.384 413.603 274.778 413.722 274.168 413.715C272.897 413.7 271.679 413.205 270.758 412.33C269.836 411.455 269.28 410.264 269.2 408.995C269.162 408.385 269.25 407.774 269.459 407.2C269.668 406.626 269.993 406.101 270.414 405.658C270.835 405.215 271.343 404.864 271.905 404.626C272.468 404.388 273.074 404.269 273.685 404.276C274.955 404.288 276.174 404.782 277.093 405.658C278.013 406.534 278.566 407.727 278.639 408.995Z" fill="#9F36F0"/>
<path d="M293.143 408.995C293.183 409.604 293.097 410.215 292.889 410.789C292.682 411.363 292.358 411.889 291.939 412.332C291.519 412.775 291.012 413.127 290.45 413.365C289.888 413.603 289.282 413.722 288.672 413.715C287.401 413.7 286.183 413.205 285.262 412.33C284.34 411.455 283.784 410.263 283.704 408.995C283.666 408.386 283.754 407.777 283.962 407.203C284.17 406.63 284.494 406.106 284.913 405.663C285.332 405.22 285.839 404.869 286.4 404.63C286.961 404.391 287.565 404.271 288.175 404.276C289.446 404.29 290.664 404.785 291.585 405.66C292.507 406.536 293.063 407.727 293.143 408.995Z" fill="#9F36F0"/>
<path d="M307.648 408.995C307.686 409.605 307.598 410.216 307.389 410.79C307.18 411.365 306.855 411.89 306.434 412.333C306.013 412.776 305.505 413.127 304.943 413.365C304.38 413.603 303.774 413.722 303.163 413.715C301.894 413.7 300.677 413.205 299.758 412.329C298.839 411.453 298.285 410.262 298.209 408.995C298.169 408.386 298.255 407.775 298.462 407.201C298.67 406.627 298.993 406.102 299.413 405.659C299.833 405.215 300.34 404.864 300.902 404.626C301.464 404.388 302.07 404.269 302.68 404.276C303.951 404.291 305.169 404.785 306.09 405.661C307.011 406.536 307.568 407.727 307.648 408.995Z" fill="#9F36F0"/>
<path d="M503.843 387.415C509.657 387.545 515.805 387.018 520.963 389.705C527.419 393.067 530.492 400.457 533.066 407.266C534.459 410.948 536.046 416.284 537.078 421.793C537.709 414.734 538.785 407.706 540.03 400.736C541.99 389.76 544.418 378.638 546.083 367.472C541.166 364.628 530.775 359.899 526.255 357.984C522.39 356.346 518.477 354.682 515.157 352.115C511.753 349.483 509.11 346.013 506.51 342.585C501.729 336.281 496.724 329.341 496.784 321.429C501.305 324.78 505.987 328.207 511.453 329.544C514.513 330.292 517.697 330.349 520.804 330.871C528.55 332.175 535.749 336.497 540.542 342.722C542.558 345.33 545.232 357.397 546.576 363.978C548.512 349.474 548.941 334.913 545.151 320.515C544.822 319.265 546.761 318.934 547.111 320.151C554.398 345.553 548.482 371.397 543.923 396.709C548.752 388.152 557.124 378.021 562.205 372.437C563.272 371.264 564.423 370.08 565.908 369.525C567.835 368.806 569.974 369.261 571.997 369.632C582.334 371.533 593.109 371.011 603.215 368.123C598.237 376.403 592.411 384.346 584.785 390.276C577.158 396.207 567.528 399.992 557.904 399.156C553.326 398.759 547.479 400.141 542.895 402.591C540.97 413.983 539.505 425.504 539.874 437.072C540.356 452.219 544.64 466.515 547.825 481.205C548.3 483.395 545.077 483.89 544.467 481.829C540.376 468.017 537.24 453.408 536.598 438.994C536.495 436.684 536.49 434.375 536.527 432.068C530.242 426.573 523.768 420.331 516.2 416.454C501.364 408.851 488.724 397.018 480.16 382.714C487.702 385.634 495.756 387.233 503.843 387.415Z" fill="#8758EA"/>
<path d="M563.996 162.039C563.056 161.818 562.858 160.567 563.684 160.066L574.345 153.591C574.614 153.428 574.798 153.156 574.85 152.847L577.014 139.9C577.185 138.877 578.558 138.66 579.036 139.579L585.096 151.224C585.241 151.502 585.5 151.704 585.805 151.776L597.946 154.638C598.886 154.86 599.084 156.11 598.259 156.612L587.597 163.086C587.329 163.249 587.144 163.521 587.093 163.831L584.929 176.778C584.758 177.8 583.385 178.018 582.906 177.098L576.847 165.454C576.702 165.175 576.443 164.974 576.137 164.902L563.996 162.039Z" fill="url(#paint4_linear_1182_2912)"/>
<path d="M548.363 152.269C548.37 153.255 547.16 153.732 546.491 153.009L541.192 147.275C540.978 147.043 540.674 146.917 540.36 146.928L532.43 147.219C531.413 147.257 530.914 145.994 531.683 145.326L537.67 140.12C537.908 139.913 538.043 139.613 538.041 139.298L537.992 131.491C537.985 130.505 539.195 130.027 539.864 130.751L545.163 136.485C545.377 136.716 545.681 136.843 545.995 136.831L553.924 136.54C554.942 136.503 555.44 137.766 554.672 138.434L548.685 143.64C548.447 143.847 548.312 144.147 548.314 144.462L548.363 152.269Z" fill="url(#paint5_linear_1182_2912)"/>
<path d="M570.399 206.896C570.395 207.871 569.204 208.341 568.535 207.632L563.697 202.506C563.481 202.277 563.176 202.154 562.862 202.168L555.655 202.501C554.628 202.548 554.122 201.268 554.905 200.601L560.394 195.918C560.633 195.714 560.771 195.416 560.773 195.101L560.801 188.053C560.805 187.078 561.996 186.607 562.665 187.316L567.503 192.443C567.719 192.672 568.024 192.795 568.338 192.781L575.545 192.448C576.572 192.401 577.078 193.68 576.295 194.348L570.806 199.03C570.567 199.234 570.429 199.533 570.427 199.847L570.399 206.896Z" fill="url(#paint6_linear_1182_2912)"/>
<path d="M139.701 130.611C140.819 130.873 141.692 129.647 141.079 128.677L133.162 116.143C132.963 115.828 132.911 115.441 133.02 115.084L137.572 100.163C137.932 98.9843 136.586 98.0259 135.59 98.7508L122.978 107.932C122.676 108.152 122.294 108.229 121.93 108.144L107.497 104.762C106.38 104.5 105.507 105.726 106.12 106.696L114.036 119.23C114.235 119.545 114.287 119.932 114.178 120.289L109.626 135.21C109.267 136.388 110.613 137.347 111.608 136.622L124.22 127.44C124.522 127.221 124.905 127.143 125.268 127.228L139.701 130.611Z" fill="url(#paint7_linear_1182_2912)"/>
<path d="M161.509 128.493C160.981 129.538 162.015 130.687 163.11 130.271L171.783 126.976C172.133 126.843 172.524 126.869 172.852 127.048L181.135 131.556C182.198 132.134 183.397 131.054 182.933 129.937L179.319 121.228C179.175 120.882 179.19 120.491 179.359 120.157L183.545 111.876C184.074 110.831 183.04 109.682 181.945 110.098L173.271 113.394C172.921 113.527 172.531 113.5 172.202 113.321L163.919 108.814C162.857 108.236 161.658 109.315 162.121 110.432L165.736 119.142C165.879 119.487 165.864 119.878 165.696 120.212L161.509 128.493Z" fill="url(#paint8_linear_1182_2912)"/>
<path d="M109.14 174.947C108.628 175.986 109.647 177.118 110.734 176.718L118.595 173.824C118.946 173.695 119.335 173.726 119.662 173.907L127.155 178.077C128.222 178.671 129.438 177.577 128.959 176.453L125.597 168.565C125.451 168.221 125.462 167.83 125.627 167.495L129.328 159.981C129.84 158.941 128.822 157.81 127.735 158.21L119.873 161.103C119.523 161.232 119.133 161.202 118.806 161.02L111.314 156.851C110.246 156.256 109.031 157.35 109.51 158.475L112.871 166.363C113.018 166.707 113.007 167.097 112.842 167.433L109.14 174.947Z" fill="url(#paint9_linear_1182_2912)"/>
<path d="M464.541 248.736C464.886 249.26 465.066 249.536 465.286 249.909L465.907 250.93C466.308 251.62 466.666 252.31 467.011 252.986C467.701 254.366 468.391 255.746 468.943 257.126C470.1 259.867 471.096 262.673 471.924 265.53C473.595 271.174 474.695 276.972 475.209 282.836L475.305 283.926C475.317 284.146 475.317 284.368 475.305 284.588V285.32C475.328 286.279 475.273 287.239 475.14 288.19C474.875 289.952 474.412 291.679 473.76 293.337C472.547 296.299 470.941 299.085 468.985 301.617C465.335 306.291 461.004 310.389 456.137 313.775L452.328 309.318C455.794 305.403 458.863 301.155 461.491 296.636C462.674 294.585 463.601 292.398 464.251 290.122C464.515 289.158 464.668 288.167 464.707 287.169C464.749 286.742 464.749 286.312 464.707 285.885V285.596C464.721 285.467 464.721 285.338 464.707 285.209L464.541 284.243C463.654 279.1 462.399 274.027 460.788 269.063C459.987 266.593 459.007 264.206 458.028 261.873C457.545 260.7 456.993 259.555 456.441 258.451L455.585 256.823L455.157 256.064L454.798 255.456L464.541 248.736Z" fill="#FAAE89"/>
<path d="M451.707 313.803L456.703 324.36L460.663 315.431C460.663 315.431 457.144 307.703 452.383 308.421L451.707 313.803Z" fill="#FFBE9D"/>
<path d="M460.273 324.885L464.248 318.371L460.66 315.432L456.699 324.36L460.273 324.885Z" fill="#FFBE9D"/>
<path d="M437.808 568.344C438.841 568.318 439.868 568.179 440.871 567.93C440.922 567.915 440.968 567.886 441.004 567.847C441.041 567.809 441.066 567.761 441.078 567.709C441.087 567.656 441.08 567.602 441.057 567.553C441.035 567.504 440.999 567.462 440.954 567.433C440.554 567.171 437.049 564.908 435.696 565.515C435.547 565.585 435.418 565.693 435.323 565.829C435.229 565.965 435.172 566.123 435.158 566.288C435.116 566.538 435.136 566.794 435.215 567.034C435.295 567.275 435.431 567.492 435.614 567.668C436.239 568.151 437.019 568.391 437.808 568.344ZM440.085 567.53C438.084 567.944 436.566 567.875 435.945 567.337C435.818 567.211 435.725 567.055 435.674 566.884C435.624 566.713 435.617 566.531 435.655 566.357C435.655 566.122 435.793 566.053 435.89 566.012C436.635 565.681 438.663 566.661 440.085 567.53Z" fill="#407BFF"/>
<path d="M440.803 567.93H440.941C440.982 567.903 441.017 567.866 441.041 567.823C441.065 567.78 441.078 567.731 441.079 567.681C441.079 567.543 441.079 564.218 439.809 563.1C439.654 562.96 439.469 562.855 439.269 562.793C439.069 562.731 438.858 562.714 438.65 562.741C438.433 562.743 438.222 562.819 438.054 562.957C437.886 563.095 437.77 563.287 437.726 563.5C437.463 564.811 439.561 567.295 440.665 567.93H440.803ZM438.83 563.252C438.941 563.249 439.053 563.268 439.157 563.308C439.261 563.348 439.356 563.409 439.437 563.486C440.165 564.56 440.541 565.833 440.513 567.129C439.409 566.246 438.098 564.369 438.264 563.583C438.264 563.459 438.36 563.293 438.705 563.252H438.83Z" fill="#407BFF"/>
<path d="M424.78 562.713C424.812 562.673 424.833 562.624 424.841 562.573C424.848 562.522 424.841 562.469 424.822 562.421C424.802 562.373 424.77 562.332 424.728 562.301C424.687 562.269 424.638 562.25 424.587 562.244C424.021 562.244 419.067 562.009 417.935 563.224V563.306C417.841 563.426 417.781 563.568 417.759 563.718C417.737 563.868 417.755 564.021 417.811 564.162C417.885 564.399 418.015 564.614 418.19 564.79C418.366 564.965 418.581 565.096 418.818 565.169C420.419 565.666 423.248 563.858 424.794 562.741L424.78 562.713ZM418.349 563.582C418.97 562.92 421.702 562.741 423.745 562.768C421.606 564.231 419.826 564.921 418.929 564.645C418.772 564.598 418.63 564.512 418.514 564.397C418.399 564.281 418.314 564.139 418.266 563.983C418.238 563.929 418.224 563.87 418.224 563.81C418.224 563.75 418.238 563.691 418.266 563.638L418.349 563.582Z" fill="#407BFF"/>
<path d="M424.783 562.714C424.804 562.671 424.814 562.623 424.814 562.576C424.814 562.528 424.804 562.481 424.783 562.438C424.714 562.327 423.168 559.678 421.347 559.126C421.085 559.049 420.811 559.027 420.54 559.06C420.27 559.093 420.009 559.181 419.773 559.319C419.111 559.705 419.07 560.161 419.152 560.45C419.511 561.734 423.03 562.865 424.548 562.852C424.596 562.851 424.643 562.838 424.684 562.814C424.725 562.789 424.759 562.755 424.783 562.714ZM419.829 559.954C419.907 559.877 419.995 559.812 420.091 559.76C420.261 559.652 420.453 559.582 420.654 559.556C420.854 559.53 421.058 559.548 421.25 559.609C422.451 559.926 423.568 561.472 424.079 562.231C422.437 562.051 419.939 561.044 419.732 560.271C419.715 560.212 419.714 560.15 419.731 560.091C419.749 560.032 419.782 559.98 419.829 559.94V559.954Z" fill="#407BFF"/>
<path d="M439.977 208.315C438.597 215.215 435.616 230.133 440.405 234.715C440.405 234.715 438.528 241.615 425.791 241.615C411.77 241.615 419.098 234.715 419.098 234.715C426.743 232.893 426.55 227.208 425.211 221.881L439.977 208.315Z" fill="#FFBE9D"/>
<path d="M416.625 192.142C416.703 192.155 416.782 192.155 416.86 192.142C416.925 192.11 416.984 192.065 417.032 192.01C417.08 191.955 417.117 191.891 417.14 191.821C417.163 191.752 417.172 191.679 417.167 191.606C417.161 191.533 417.141 191.462 417.108 191.397C416.737 190.61 416.182 189.923 415.491 189.395C414.799 188.866 413.991 188.512 413.134 188.361C412.99 188.349 412.847 188.392 412.734 188.482C412.622 188.572 412.547 188.701 412.527 188.844C412.511 188.988 412.553 189.133 412.643 189.247C412.734 189.36 412.865 189.434 413.01 189.451C413.686 189.581 414.322 189.87 414.865 190.295C415.407 190.72 415.84 191.268 416.128 191.894C416.182 191.975 416.256 192.041 416.343 192.085C416.431 192.129 416.528 192.148 416.625 192.142Z" fill="#7239A2"/>
<path d="M412.444 198.2C411.357 200.215 410.002 202.072 408.414 203.72C408.844 204.113 409.354 204.408 409.909 204.585C410.465 204.761 411.052 204.815 411.629 204.741L412.444 198.2Z" fill="#630F0F"/>
<path d="M413.478 196.641C413.367 197.565 412.774 198.255 412.18 198.186C411.587 198.117 411.173 197.303 411.283 196.378C411.394 195.454 411.987 194.764 412.663 194.833C413.34 194.902 413.574 195.716 413.478 196.641Z" fill="#7239A2"/>
<path d="M412.844 194.916L410.719 194.06C410.719 194.06 411.616 195.882 412.844 194.916Z" fill="#7239A2"/>
<path d="M436.965 560.091L425.704 562.713L418.859 536.824L430.12 534.202L436.965 560.091Z" fill="#FFBE9D"/>
<path d="M454.246 567.654H442.695L443.592 540.896H455.157L454.246 567.654Z" fill="#FFBE9D"/>
<path d="M441.77 566.314H454.756C454.981 566.312 455.199 566.394 455.369 566.541C455.539 566.688 455.65 566.893 455.68 567.116L457.157 577.382C457.186 577.642 457.16 577.905 457.08 578.153C457.001 578.402 456.869 578.632 456.694 578.827C456.519 579.021 456.306 579.175 456.067 579.281C455.828 579.386 455.569 579.441 455.308 579.439C450.781 579.37 448.601 579.093 442.888 579.093C439.369 579.093 434.235 579.466 429.391 579.466C424.547 579.466 424.271 574.663 426.3 574.236C435.353 572.276 436.788 569.6 439.838 567.033C440.377 566.573 441.061 566.318 441.77 566.314Z" fill="#7239A2"/>
<path d="M424.712 560.989L436.511 555.565C436.711 555.47 436.94 555.451 437.153 555.512C437.366 555.573 437.55 555.709 437.67 555.896L443.314 564.618C443.446 564.842 443.529 565.092 443.559 565.351C443.588 565.609 443.563 565.871 443.485 566.12C443.407 566.368 443.278 566.597 443.106 566.793C442.934 566.988 442.723 567.145 442.486 567.254C438.346 569.075 436.249 569.752 431.06 572.139C427.872 573.602 421.4 576.969 417.011 579.039C412.623 581.109 410.36 576.817 412.016 575.575C419.426 570.055 421.552 566.095 423.249 562.493C423.536 561.829 424.056 561.294 424.712 560.989Z" fill="#7239A2"/>
<path opacity="0.2" d="M418.859 536.824L422.53 550.707L433.653 547.547L430.134 534.202L418.859 536.824Z" fill="black"/>
<path opacity="0.2" d="M455.157 540.896H443.592L443.137 554.696H454.701L455.157 540.896Z" fill="black"/>
<path d="M460.4 237.337C465.203 238.4 470.336 255.663 470.336 255.663L456.757 270.112C456.757 270.112 445.483 253.883 447.787 247.922C450.119 241.698 454.673 236.095 460.4 237.337Z" fill="#7239A2"/>
<path opacity="0.4" d="M452.727 248.336C450.298 246.114 448.656 246.776 447.538 248.543C446.434 253.676 452.976 264.427 455.611 268.498C456.826 263.64 458.22 253.4 452.727 248.336Z" fill="black"/>
<path d="M399.556 237.682C399.556 237.682 394.036 239.614 405.076 307.441H451.996C451.209 288.342 451.182 276.557 460.276 237.337C453.701 235.98 447.037 235.104 440.335 234.715C433.242 234.204 426.121 234.204 419.028 234.715C409.933 235.557 399.556 237.682 399.556 237.682Z" fill="#7239A2"/>
<path opacity="0.4" d="M399.129 263.709C399.433 267.007 399.833 270.719 400.357 274.914C404.207 271.45 407.354 261.597 406.194 255.856C403.444 258.089 401.06 260.738 399.129 263.709Z" fill="black"/>
<path d="M404.149 253.4C401.617 259.773 398.766 266.014 395.607 272.099C392.484 278.405 388.788 284.41 384.567 290.039L383.684 291.129L383.242 291.668C383.09 291.847 382.966 292.013 382.731 292.261C381.901 293.167 380.976 293.981 379.971 294.69C378.196 295.919 376.254 296.885 374.203 297.56C370.627 298.702 366.914 299.361 363.163 299.52C356.138 299.799 349.107 299.173 342.242 297.657L343.001 291.861C346.175 291.861 349.501 291.861 352.661 291.599C355.835 291.443 358.997 291.092 362.128 290.55C365.036 290.096 367.88 289.299 370.601 288.176C371.7 287.707 372.727 287.084 373.651 286.327C374.004 286.032 374.323 285.698 374.603 285.333C374.603 285.333 374.769 285.113 374.879 284.961L375.197 284.505L375.845 283.595C379.308 278.246 382.393 272.662 385.077 266.883C387.837 261.018 390.597 254.932 393.123 248.943L404.149 253.4Z" fill="#FAAE89"/>
<path d="M399.555 237.682C393.8 239.062 386.734 254.849 386.734 254.849L398.658 272.375C398.658 272.375 414.541 252.379 412.651 246.279C410.719 239.917 406.579 235.971 399.555 237.682Z" fill="#7239A2"/>
<path d="M346.315 292.744L336.365 288.148L335.371 298.043C335.371 298.043 343.651 300.486 347.791 298.043L346.315 292.744Z" fill="#FFBE9D"/>
<path d="M330.417 287.155L329.465 294.69L335.371 298.043L336.365 288.148L330.417 287.155Z" fill="#FFBE9D"/>
<path d="M444.973 197.317C442.861 208.592 442.213 213.422 435.754 218.542C426.094 226.242 412.639 221.191 411.342 209.516C410.155 199.001 413.798 182.33 425.487 179.156C428.062 178.446 430.776 178.407 433.37 179.043C435.964 179.68 438.352 180.97 440.305 182.791C442.259 184.612 443.714 186.903 444.531 189.446C445.348 191.989 445.5 194.699 444.973 197.317Z" fill="#FFBE9D"/>
<path d="M420.202 199.691C419.553 205.445 419.305 220.391 431.945 220.86C447.415 221.426 452.052 208.205 450.672 202.92C458.731 196.365 459.89 185.09 450.838 176.465C441.785 167.84 421.858 172.656 416.338 181.061C409.341 191.48 420.202 199.691 420.202 199.691Z" fill="#4A1B00"/>
<path d="M435.697 179.819C434.952 173.747 435.531 169.565 441.217 169.565C446.902 169.565 454.658 171.622 457.501 177.431C460.344 183.241 460.578 192.335 452.643 191.411C444.708 190.486 436.594 187.078 435.697 179.819Z" fill="#9F36F0"/>
<path d="M444.501 178.356C443.121 171.125 449.593 150.756 465.312 149.376C472.598 148.755 475.965 156.593 472.212 157.89C479.112 157.808 483.528 166.929 477.097 168.296C482.175 171.552 480.919 178.232 473.674 181.516C468.279 184 446.364 188.375 444.501 178.356Z" fill="#4A1B00"/>
<path d="M461.296 186.125C456.231 186.125 450.946 185.38 447.661 183.186C446.743 182.632 445.97 181.868 445.406 180.956C444.842 180.044 444.503 179.011 444.418 177.942C444.414 177.851 444.445 177.762 444.504 177.693C444.563 177.624 444.645 177.58 444.736 177.569C444.781 177.564 444.828 177.567 444.872 177.581C444.916 177.594 444.957 177.616 444.992 177.646C445.027 177.676 445.056 177.713 445.076 177.754C445.096 177.795 445.107 177.841 445.108 177.887C445.191 178.851 445.501 179.783 446.012 180.605C446.522 181.428 447.22 182.118 448.048 182.62C454.299 186.76 468.748 185.38 473.247 184C477.138 182.731 479.774 180.26 480.298 177.418C480.462 176.374 480.333 175.306 479.926 174.332C479.519 173.357 478.85 172.515 477.994 171.898C477.961 171.867 477.934 171.829 477.916 171.788C477.898 171.746 477.889 171.701 477.889 171.656C477.889 171.611 477.898 171.566 477.916 171.524C477.934 171.483 477.961 171.446 477.994 171.415C478.058 171.351 478.145 171.316 478.235 171.316C478.326 171.316 478.412 171.351 478.477 171.415C479.44 172.117 480.189 173.074 480.64 174.178C481.091 175.282 481.226 176.49 481.03 177.666C480.464 180.771 477.663 183.421 473.523 184.773C469.528 185.78 465.414 186.235 461.296 186.125Z" fill="#7239A2"/>
<path d="M416.682 198.2C415.397 200.003 414.867 202.236 415.205 204.424C415.661 207.322 418.476 207.515 420.518 205.666C422.561 203.817 424.341 200.477 422.837 198.076C422.502 197.557 422.041 197.133 421.496 196.843C420.951 196.553 420.341 196.407 419.725 196.42C419.108 196.432 418.504 196.602 417.971 196.914C417.439 197.226 416.995 197.668 416.682 198.2Z" fill="#FFBE9D"/>
<path d="M417.469 307.441C417.469 307.441 424.176 386.778 431.145 431.49C436.761 467.604 441.205 552.019 441.205 552.019H456.964C456.964 552.019 462.567 470.13 459.724 434.415C452.507 344.025 468.612 336.656 452.038 307.455L417.469 307.441Z" fill="#455A64"/>
<path opacity="0.4" d="M437.312 337.429C431.066 343.984 426.026 351.589 422.422 359.895C424.257 377.725 426.438 397.514 428.756 414.847C438.269 390.218 441.218 363.54 437.312 337.429Z" fill="black"/>
<path d="M406.44 306.944C406.44 306.944 391.881 393.595 389.59 432.649C395.303 468.763 418.68 545.105 418.68 545.105L433.018 539.902C433.018 539.902 425.083 456.661 416.458 433.877C435.875 368.506 450.144 351.974 445.99 307.441C436.041 307.441 406.44 306.944 406.44 306.944Z" fill="#455A64"/>
<path d="M416.763 548.914L436.138 543.656L435.034 535.928L414.293 541.544L416.763 548.914Z" fill="#384C55"/>
<path d="M439.036 552.336H459.115L460.164 545.298L438.926 544.58L439.036 552.336Z" fill="#384C55"/>
<path d="M452.727 304.681L454.839 308.89C455.004 309.221 454.618 309.552 454.08 309.552H404.841C404.427 309.552 404.069 309.345 404.041 309.069L403.613 304.929C403.613 304.639 403.958 304.391 404.414 304.391H451.955C452.097 304.371 452.243 304.388 452.378 304.438C452.513 304.489 452.633 304.572 452.727 304.681Z" fill="#7239A2"/>
<path opacity="0.5" d="M452.727 304.681L454.839 308.89C455.004 309.221 454.618 309.552 454.08 309.552H404.841C404.427 309.552 404.069 309.345 404.041 309.069L403.613 304.929C403.613 304.639 403.958 304.391 404.414 304.391H451.955C452.097 304.371 452.243 304.388 452.378 304.438C452.513 304.489 452.633 304.572 452.727 304.681Z" fill="black"/>
<path d="M446.337 309.98H447.607C447.869 309.98 448.062 309.842 448.048 309.691L447.441 304.171C447.441 304.005 447.206 303.881 446.958 303.881H445.675C445.426 303.881 445.233 304.005 445.247 304.171L445.84 309.691C445.868 309.87 446.089 309.98 446.337 309.98Z" fill="#407BFF"/>
<path d="M429.252 269.794C429.099 269.792 428.952 269.741 428.83 269.65C428.709 269.558 428.619 269.43 428.575 269.284C424.077 252.641 414.775 238.924 410.263 236.854C409.912 236.639 409.491 236.569 409.09 236.661C409.006 236.705 408.915 236.731 408.821 236.738C408.727 236.745 408.633 236.733 408.544 236.703C408.455 236.672 408.373 236.624 408.303 236.56C408.234 236.497 408.178 236.42 408.139 236.334C408.1 236.248 408.08 236.155 408.078 236.061C408.077 235.967 408.095 235.873 408.131 235.786C408.167 235.699 408.22 235.62 408.288 235.555C408.356 235.489 408.436 235.438 408.524 235.405C408.901 235.266 409.304 235.212 409.705 235.245C410.105 235.279 410.493 235.399 410.842 235.598C415.617 237.861 425.056 251.385 429.776 268.401C433.157 268.401 438.373 267.945 439.643 267.835C441.216 265.958 452.781 251.496 448.461 235.667C448.436 235.58 448.429 235.489 448.44 235.399C448.451 235.309 448.48 235.223 448.525 235.144C448.57 235.066 448.63 234.997 448.702 234.942C448.774 234.887 448.857 234.848 448.944 234.825C449.12 234.779 449.307 234.803 449.464 234.894C449.622 234.984 449.738 235.133 449.786 235.308C454.602 252.917 440.637 268.801 440.485 268.953C440.431 269.02 440.364 269.075 440.288 269.115C440.212 269.156 440.129 269.18 440.043 269.187C439.974 269.187 433.088 269.794 429.252 269.794Z" fill="#9F36F0"/>
<path d="M452.121 279.538C444.6 265.448 441.522 264.454 440.184 259.928C441.198 257.397 442.646 255.062 444.462 253.028C443.551 252.766 441.591 252.379 440.322 252.145C440.46 251.524 440.612 250.916 440.75 250.323C439.368 250.168 437.971 250.234 436.61 250.516V249.136C434.857 248.755 433.056 248.638 431.269 248.791C431.425 249.444 431.577 250.107 431.724 250.778C430.344 251.041 428.247 251.468 427.239 251.758C429.197 253.975 430.635 256.601 431.448 259.445C427.391 266.414 411.631 311.209 437.272 314.645C462.912 318.081 459.628 293.641 452.121 279.538Z" fill="#9F36F0"/>
<path opacity="0.4" d="M452.121 279.538C444.6 265.448 441.522 264.454 440.184 259.928C441.198 257.397 442.646 255.062 444.462 253.028C443.551 252.766 441.591 252.379 440.322 252.145C440.46 251.524 440.612 250.916 440.75 250.323C439.368 250.168 437.971 250.234 436.61 250.516V249.136C434.857 248.755 433.056 248.638 431.269 248.791C431.425 249.444 431.577 250.107 431.724 250.778C430.344 251.041 428.247 251.468 427.239 251.758C429.197 253.975 430.635 256.601 431.448 259.445C427.391 266.414 411.631 311.209 437.272 314.645C462.912 318.081 459.628 293.641 452.121 279.538Z" fill="white"/>
<path d="M430.399 258.106C430.239 258.817 430.169 259.545 430.192 260.273C430.192 260.783 431.572 261.128 433.103 261.28C434.635 261.432 441.066 261.68 440.859 260.963C440.652 260.245 441.176 259.265 441.204 258.658C441.232 258.051 438.651 258.023 436.484 258.106C434.318 258.189 430.826 257.333 430.399 258.106Z" fill="#407BFF"/>
<path d="M415.479 309.98H416.749C416.997 309.98 417.19 309.842 417.177 309.691L416.583 304.171C416.583 304.005 416.349 303.881 416.086 303.881H414.858C414.61 303.881 414.417 304.005 414.43 304.171L415.024 309.691C414.996 309.87 415.217 309.98 415.479 309.98Z" fill="#407BFF"/>
<g opacity="0.2">
<mask id="mask0_1182_2912" style="mask-type:luminance" maskUnits="userSpaceOnUse" x="207" y="116" width="262" height="498">
<g opacity="0.2">
<path d="M433.623 613.278C453.134 613.26 468.999 596.951 468.984 576.911L468.684 152.666C468.667 132.628 452.781 116.341 433.268 116.352L242.703 116.481C223.187 116.497 207.321 132.81 207.336 152.846L207.638 577.094C207.654 597.135 223.546 613.42 243.058 613.402L433.623 613.278Z" fill="white"/>
</g>
</mask>
<g mask="url(#mask0_1182_2912)">
<path d="M586.227 236.682L149.41 568.008L206.221 646.959L643.038 315.633L586.227 236.682Z" fill="white"/>
<path d="M475.7 83.0669L38.8828 414.393L83.9605 477.038L520.778 145.712L475.7 83.0669Z" fill="white"/>
<path d="M551.068 187.846L114.195 519.117L133.952 546.582L570.825 215.311L551.068 187.846Z" fill="white"/>
</g>
</g>
</g>
<defs>
<filter id="filter0_f_1182_2912" x="0" y="0" width="677" height="711" filterUnits="userSpaceOnUse" color-interpolation-filters="sRGB">
<feFlood flood-opacity="0" result="BackgroundImageFix"/>
<feBlend mode="normal" in="SourceGraphic" in2="BackgroundImageFix" result="shape"/>
<feGaussianBlur stdDeviation="50" result="effect1_foregroundBlur_1182_2912"/>
</filter>
<radialGradient id="paint0_radial_1182_2912" cx="0" cy="0" r="1" gradientUnits="userSpaceOnUse" gradientTransform="translate(395.801 364.794) rotate(83.8051) scale(123.79 247.712)">
<stop stop-color="white"/>
<stop offset="1" stop-color="#9F36F0"/>
</radialGradient>
<radialGradient id="paint1_radial_1182_2912" cx="0" cy="0" r="1" gradientUnits="userSpaceOnUse" gradientTransform="translate(395.801 364.794) rotate(83.8051) scale(123.79 247.712)">
<stop stop-color="white"/>
<stop offset="1" stop-color="#9F36F0"/>
</radialGradient>
<radialGradient id="paint2_radial_1182_2912" cx="0" cy="0" r="1" gradientUnits="userSpaceOnUse" gradientTransform="translate(395.801 364.794) rotate(83.8051) scale(123.79 247.712)">
<stop stop-color="white"/>
<stop offset="1" stop-color="#9F36F0"/>
</radialGradient>
<linearGradient id="paint3_linear_1182_2912" x1="324" y1="262.882" x2="415.58" y2="483.5" gradientUnits="userSpaceOnUse">
<stop stop-color="white"/>
<stop offset="1" stop-color="#9F36F0"/>
</linearGradient>
<linearGradient id="paint4_linear_1182_2912" x1="621.147" y1="169.169" x2="535.432" y2="169.419" gradientUnits="userSpaceOnUse">
<stop offset="0.0911669" stop-color="#FBF5FF" stop-opacity="0.75"/>
<stop offset="0.51" stop-color="#9F36F0" stop-opacity="0.61"/>
<stop offset="0.780797" stop-color="#C5A2FE" stop-opacity="0.881155"/>
<stop offset="1" stop-color="#9F36F0"/>
</linearGradient>
<linearGradient id="paint5_linear_1182_2912" x1="621.149" y1="169.169" x2="535.434" y2="169.419" gradientUnits="userSpaceOnUse">
<stop offset="0.0911669" stop-color="#FBF5FF" stop-opacity="0.75"/>
<stop offset="0.51" stop-color="#9F36F0" stop-opacity="0.61"/>
<stop offset="0.780797" stop-color="#C5A2FE" stop-opacity="0.881155"/>
<stop offset="1" stop-color="#9F36F0"/>
</linearGradient>
<linearGradient id="paint6_linear_1182_2912" x1="621.147" y1="169.169" x2="535.432" y2="169.419" gradientUnits="userSpaceOnUse">
<stop offset="0.0911669" stop-color="#FBF5FF" stop-opacity="0.75"/>
<stop offset="0.51" stop-color="#9F36F0" stop-opacity="0.61"/>
<stop offset="0.780797" stop-color="#C5A2FE" stop-opacity="0.881155"/>
<stop offset="1" stop-color="#9F36F0"/>
</linearGradient>
<linearGradient id="paint7_linear_1182_2912" x1="75.119" y1="107.939" x2="166.186" y2="153.585" gradientUnits="userSpaceOnUse">
<stop offset="0.0911669" stop-color="#FBF5FF" stop-opacity="0.75"/>
<stop offset="0.51" stop-color="#9F36F0" stop-opacity="0.61"/>
<stop offset="0.780797" stop-color="#C5A2FE" stop-opacity="0.881155"/>
<stop offset="1" stop-color="#9F36F0"/>
</linearGradient>
<linearGradient id="paint8_linear_1182_2912" x1="75.1191" y1="107.939" x2="166.186" y2="153.585" gradientUnits="userSpaceOnUse">
<stop offset="0.0911669" stop-color="#FBF5FF" stop-opacity="0.75"/>
<stop offset="0.51" stop-color="#9F36F0" stop-opacity="0.61"/>
<stop offset="0.780797" stop-color="#C5A2FE" stop-opacity="0.881155"/>
<stop offset="1" stop-color="#9F36F0"/>
</linearGradient>
<linearGradient id="paint9_linear_1182_2912" x1="75.119" y1="107.939" x2="166.186" y2="153.585" gradientUnits="userSpaceOnUse">
<stop offset="0.0911669" stop-color="#FBF5FF" stop-opacity="0.75"/>
<stop offset="0.51" stop-color="#9F36F0" stop-opacity="0.61"/>
<stop offset="0.780797" stop-color="#C5A2FE" stop-opacity="0.881155"/>
<stop offset="1" stop-color="#9F36F0"/>
</linearGradient>
<clipPath id="clip0_1182_2912">
<rect width="677" height="711" fill="white"/>
</clipPath>
</defs>
</svg>
