<svg width="200" height="200" viewBox="0 0 200 200" fill="none" xmlns="http://www.w3.org/2000/svg">
<g clip-path="url(#clip0_1182_6649)">
<path d="M200 100C200 44.7715 155.228 0 100 0C44.7715 0 0 44.7715 0 100C0 155.228 44.7715 200 100 200C155.228 200 200 155.228 200 100Z" fill="#9F35F0" fill-opacity="0.15"/>
<g opacity="0.75">
<path d="M100 116.51C77.5728 116.51 58.416 120.046 58.416 134.19C58.416 148.339 77.4532 152 100 152C122.428 152 141.585 148.469 141.585 134.32C141.585 120.171 122.553 116.51 100 116.51Z" fill="url(#paint0_linear_1182_6649)"/>
<path d="M100.001 103.037C115.278 103.037 127.519 90.7908 127.519 75.5184C127.519 60.246 115.278 48 100.001 48C84.7284 48 72.4824 60.246 72.4824 75.5184C72.4824 90.7908 84.7284 103.037 100.001 103.037Z" fill="url(#paint1_linear_1182_6649)"/>
</g>
</g>
<defs>
<linearGradient id="paint0_linear_1182_6649" x1="29.0979" y1="110.875" x2="111.298" y2="178.878" gradientUnits="userSpaceOnUse">
<stop stop-color="#FBF5FF" stop-opacity="0.75"/>
<stop offset="1" stop-color="#9F36F0"/>
</linearGradient>
<linearGradient id="paint1_linear_1182_6649" x1="53.0812" y1="39.2622" x2="134.552" y2="68.0231" gradientUnits="userSpaceOnUse">
<stop stop-color="#FBF5FF" stop-opacity="0.75"/>
<stop offset="1" stop-color="#9F36F0"/>
</linearGradient>
<clipPath id="clip0_1182_6649">
<rect width="200" height="200" fill="white"/>
</clipPath>
</defs>
</svg>
